<svg version="1.1" id="Layer_1" xmlns="http://www.w3.org/2000/svg" xmlns:xlink="http://www.w3.org/1999/xlink" x="0px" y="0px"
	 width="100%" viewBox="0 0 768 451" enable-background="new 0 0 768 451" xml:space="preserve">
<path fill="#000000" opacity="1.000000" stroke="none" 
	d="
M495.000000,452.000000 
	C494.555542,452.000000 494.111115,452.000000 493.226685,451.593781 
	C492.603271,449.429749 493.024384,446.601898 492.132507,446.098022 
	C488.113068,443.826965 489.079407,440.270935 489.012054,436.929565 
	C488.951813,433.941956 489.109497,430.946808 488.968384,427.964569 
	C488.569092,419.526917 484.799164,415.236786 477.165863,415.093353 
	C473.281464,415.020294 469.380524,415.825928 465.275421,416.256561 
	C465.275421,418.911285 465.275421,421.164703 465.275421,423.447815 
	C479.085449,421.631683 479.706360,421.897247 479.998169,430.013519 
	C478.519165,430.013519 477.034973,429.914948 475.567352,430.029327 
	C465.308411,430.829010 460.531342,435.587616 462.214691,444.142914 
	C462.770233,446.966492 465.347290,449.392303 467.000000,452.000000 
	C460.978851,452.000000 454.957703,452.000000 448.402283,451.622925 
	C448.058838,450.982880 448.223145,450.514923 448.444214,450.486359 
	C460.525024,448.924805 462.482452,433.883240 453.418671,427.348297 
	C453.955627,426.709778 454.519897,426.102692 455.013214,425.442566 
	C460.495026,418.106964 457.564026,408.216034 448.165924,407.077911 
	C441.685303,406.293091 435.132080,406.107391 428.793701,405.666595 
	C428.352295,407.164459 428.097626,407.627747 428.096130,408.091827 
	C428.048950,422.727844 428.026367,437.363922 428.000000,452.000000 
	C420.312408,452.000000 412.624847,452.000000 404.373962,451.539185 
	C403.810638,439.523193 403.810638,427.968018 403.810638,416.385376 
	C400.964050,416.385376 398.735809,416.385376 396.000000,416.385376 
	C396.000000,428.502350 396.000000,440.251160 396.000000,452.000000 
	C391.310760,452.000000 386.621490,452.000000 381.366974,451.647552 
	C385.809326,448.160614 389.770416,444.389008 391.413025,438.282990 
	C394.133484,428.170135 389.488403,417.364349 380.605896,415.477142 
	C377.397034,414.795441 373.830658,415.796417 369.779663,416.073914 
	C369.779663,411.490753 369.779663,406.920166 369.779663,402.379517 
	C366.549011,402.379517 363.979248,402.379517 361.000305,402.379517 
	C361.000305,415.552856 360.988495,428.358826 361.007111,441.164764 
	C361.013092,445.275421 359.851013,450.016479 365.996429,451.075378 
	C366.049164,451.084473 366.001068,451.678894 366.000000,452.000000 
	C363.958344,452.000000 361.916656,452.000000 359.323730,451.585266 
	C358.352570,449.053650 358.093689,446.887665 357.467773,444.833527 
	C356.835144,442.757355 355.328369,440.844849 355.113159,438.766571 
	C354.721100,434.980286 354.686951,431.092896 355.067780,427.304413 
	C355.779022,420.229156 351.136688,415.802979 343.170135,415.089172 
	C340.937805,414.889130 338.616364,415.609558 336.343048,415.955566 
	C330.461060,416.850830 330.106842,417.464417 331.832275,423.591309 
	C343.737457,421.043060 347.162506,422.440155 346.346771,429.565674 
	C343.117004,430.060638 339.845612,430.426605 336.632782,431.080505 
	C328.042877,432.828674 326.154266,440.962219 329.757538,447.069885 
	C330.841858,448.907867 332.567902,450.367218 334.000000,452.000000 
	C331.299988,452.000000 328.599976,452.000000 325.354767,451.539276 
	C324.870483,442.419739 325.116455,433.756622 324.917053,425.103821 
	C324.811615,420.528870 323.031067,416.452454 317.725311,415.935089 
	C313.649811,415.537659 309.504547,415.855988 304.829468,415.855988 
	C304.829468,411.677582 304.829468,407.083801 304.829468,402.351593 
	C302.043762,402.351593 299.811279,402.351593 297.000000,402.351593 
	C297.000000,419.121735 297.000000,435.560883 297.000000,452.000000 
	C289.979034,452.000000 282.958099,452.000000 275.406311,451.619690 
	C275.210052,450.893250 275.500427,450.306396 275.885590,450.235626 
	C293.938965,446.918976 295.741638,422.298889 285.518402,412.100342 
	C277.206848,403.808838 266.600891,406.441223 256.000000,406.052521 
	C256.000000,421.820557 256.000000,436.910278 256.000000,452.000000 
	C248.979050,452.000000 241.958099,452.000000 234.374084,451.539154 
	C233.811020,439.502899 233.811020,427.927460 233.811020,416.449219 
	C230.557007,416.449219 227.996170,416.449219 225.007187,416.449219 
	C225.007187,424.356537 224.976013,431.827209 225.024384,439.297302 
	C225.040924,441.849731 224.733521,443.618042 221.491440,444.148926 
	C216.594345,444.950806 214.037399,443.183685 214.021423,438.081665 
	C213.998734,430.830994 214.015686,423.580200 214.015686,416.440369 
	C210.525009,416.440369 207.961182,416.440369 205.470444,416.440369 
	C203.268509,433.512665 204.611664,441.958832 211.000000,452.000000 
	C204.645599,452.000000 198.291214,452.000000 191.369446,451.647552 
	C196.563553,447.863922 200.506348,443.233246 201.813980,436.369843 
	C203.510910,427.463104 198.377228,416.961548 190.607056,415.405365 
	C187.385788,414.760223 183.832901,415.771027 179.789612,416.077332 
	C179.789612,411.491028 179.789612,406.925568 179.789612,402.434082 
	C176.579163,402.434082 174.018021,402.434082 171.235748,402.434082 
	C171.235748,418.295593 171.235748,433.732819 171.235748,448.818451 
	C172.616013,449.985046 173.807999,450.992523 175.000000,452.000000 
	C173.285645,452.000000 171.571289,452.000000 169.274902,451.640411 
	C163.614716,436.866455 158.687393,422.394196 153.216415,408.130493 
	C152.690674,406.759766 148.797302,406.260254 146.440247,406.183258 
	C145.192719,406.142548 143.258636,407.612579 142.716858,408.867767 
	C140.431992,414.161346 138.494553,419.609192 136.541382,425.040649 
	C133.315674,434.010834 130.175949,443.011932 127.000000,452.000000 
	C122.310745,452.000000 117.621490,452.000000 112.361938,451.564819 
	C111.791634,448.883545 111.791634,446.637421 111.791634,444.335266 
	C108.918800,444.074402 106.657242,443.869019 103.716934,443.601990 
	C103.716934,436.309875 103.716934,429.336914 103.716934,422.301422 
	C106.147957,422.061188 108.405266,421.838104 110.979027,421.583740 
	C110.861015,419.600494 110.767372,418.026855 110.666542,416.332397 
	C108.017822,416.073975 105.766945,415.854370 103.328751,415.616516 
	C103.098740,412.751709 102.891121,410.165741 102.673035,407.449341 
	C100.352409,407.449341 98.331337,407.449341 96.393433,407.449341 
	C95.480202,411.083740 97.297729,415.680115 91.755432,416.577423 
	C91.580399,416.605774 91.678299,421.453156 92.096970,421.527374 
	C96.000130,422.219452 94.885429,425.103699 94.976189,427.368347 
	C95.312042,435.748199 93.331657,444.493286 99.000000,452.000000 
	C94.310745,452.000000 89.621490,452.000000 84.383331,451.648499 
	C84.435555,450.767059 84.971954,450.129181 85.647812,449.723907 
	C92.299187,445.735687 91.773033,432.140991 82.916573,430.279602 
	C79.675194,429.598297 76.764282,427.344696 73.577843,425.745758 
	C77.848816,419.338715 83.171234,423.924133 87.698273,422.543427 
	C87.698273,420.483978 87.698273,418.577515 87.698273,415.953644 
	C82.829384,415.953644 78.072197,415.308624 73.566711,416.098755 
	C66.057457,417.415710 63.242687,426.979248 68.884949,432.128021 
	C71.798775,434.786987 75.990166,436.017548 79.504158,438.065399 
	C80.495445,438.643036 81.841476,439.895142 81.763557,440.718567 
	C81.651337,441.904663 80.603577,443.609955 79.565964,443.968933 
	C77.649696,444.631866 75.424728,444.769897 73.376884,444.586029 
	C71.145653,444.385742 68.969559,443.571289 66.903618,443.057922 
	C64.320824,447.091888 67.125580,449.421448 69.000000,452.000000 
	C64.310745,452.000000 59.621487,452.000000 54.373226,451.539124 
	C53.872795,445.763763 54.266563,440.427338 53.920425,435.139313 
	C53.191483,424.003052 53.032757,424.017090 63.855141,422.724152 
	C64.131065,422.691223 64.370308,422.351135 64.628525,422.149109 
	C64.630394,419.897278 64.630394,417.650604 64.630394,415.391357 
	C58.005859,415.751373 51.755344,416.091064 45.000000,416.458191 
	C45.000000,428.492706 45.000000,440.246338 45.000000,452.000000 
	C43.285641,452.000000 41.571285,452.000000 39.333717,451.539185 
	C38.810513,439.523254 38.810513,427.968109 38.810513,416.385406 
	C35.963787,416.385406 33.735577,416.385406 31.000000,416.385406 
	C31.000000,428.502380 31.000000,440.251190 31.000000,452.000000 
	C23.979052,452.000000 16.958103,452.000000 9.373593,451.539307 
	C8.810031,444.500153 8.810031,437.921692 8.810031,430.766846 
	C14.825538,430.766846 19.741337,430.766846 24.581303,430.766846 
	C24.581303,428.257080 24.581303,426.355316 24.581303,423.845093 
	C19.288605,423.845093 14.379266,423.845093 9.370661,423.845093 
	C9.370661,420.325806 9.370661,417.428040 9.370661,413.920258 
	C15.300944,413.920258 20.878988,413.920258 26.668518,413.920258 
	C26.668518,411.067993 26.668518,408.837158 26.668518,406.000000 
	C17.907856,406.000000 9.453928,406.000000 1.000000,406.000000 
	C1.000000,392.312439 1.000000,378.624878 1.468657,364.468811 
	C19.505756,364.000275 37.074200,364.000275 55.234970,364.000275 
	C55.234970,329.538696 55.234970,295.987762 55.234970,261.887573 
	C84.082603,261.887573 112.327637,261.887573 139.929993,261.887573 
	C139.929993,247.655396 139.929993,233.980194 139.929993,219.717133 
	C111.156723,219.717133 83.269081,219.717133 55.421326,219.717133 
	C55.421326,201.214249 55.421326,183.326569 55.421326,164.836304 
	C87.390060,164.836304 118.942184,164.836304 150.638092,164.836304 
	C150.638092,149.336319 150.638092,134.448074 150.638092,119.000000 
	C100.518600,119.000000 50.759300,119.000000 1.000000,119.000000 
	C1.000000,103.312439 1.000000,87.624878 1.342770,71.345291 
	C2.471837,71.351036 3.321594,71.881805 4.034498,72.557068 
	C10.333468,78.523407 15.830909,79.803757 22.912628,76.462692 
	C29.258512,73.468781 31.102217,67.897385 31.027658,61.282085 
	C30.920828,51.803444 31.000360,42.322704 31.000334,32.842861 
	C31.000319,28.076248 31.000330,23.309635 31.000330,18.328529 
	C28.055292,18.328529 25.827150,18.328529 22.999374,18.328529 
	C22.999374,20.590349 22.999697,22.541298 22.999323,24.492249 
	C22.996939,36.965721 23.009809,49.439224 22.983681,61.912647 
	C22.974340,66.371582 20.601040,69.205345 16.336061,69.863983 
	C12.250335,70.494926 9.787869,68.152466 8.960395,64.199524 
	C8.525105,62.120090 8.124447,60.001251 8.041936,57.887177 
	C7.894701,54.114735 8.000507,50.332409 8.000507,46.000000 
	C5.241833,46.000000 3.120916,46.000000 1.000000,46.000000 
	C1.000000,31.014959 1.000000,16.029919 1.000000,1.000000 
	C132.020889,1.000000 263.041779,1.000000 394.636902,1.362841 
	C393.362335,5.819243 391.513550,9.912805 389.235962,14.955910 
	C394.447266,14.955910 398.514130,15.055605 402.567902,14.869840 
	C403.356750,14.833690 404.094727,13.686868 404.856201,13.052366 
	C404.129883,12.383403 403.492889,11.316330 402.658508,11.129128 
	C400.974121,10.751222 399.182465,10.851421 397.085052,10.734990 
	C397.611633,9.057690 397.989227,7.854909 398.035217,7.708435 
	C400.470703,7.902873 402.536926,8.067829 405.366241,8.293706 
	C403.838593,4.983722 402.919312,2.991857 402.000000,0.999995 
	C522.687561,1.000000 643.375122,1.000000 764.870789,1.246404 
	C755.332275,7.353549 745.040283,13.313483 734.626160,19.051609 
	C719.313721,27.488594 703.871521,35.690010 688.561157,44.130630 
	C662.804626,58.330269 637.143188,72.702690 611.373596,86.878532 
	C595.342773,95.697128 579.176147,104.268730 563.094299,112.995056 
	C559.499756,114.945488 556.005005,117.079681 552.464294,119.129288 
	C552.575989,119.497726 552.687683,119.866173 552.799316,120.234619 
	C581.124573,120.234619 609.449768,120.234619 638.083069,120.234619 
	C623.485352,152.449738 614.368958,185.399490 611.846130,220.164108 
	C609.323059,254.932388 611.345581,289.216492 620.452820,322.997101 
	C629.449280,356.366730 643.484863,387.313416 663.412109,415.513000 
	C663.206116,409.631134 662.488464,403.960724 661.961548,398.272644 
	C660.596191,383.534485 658.873474,368.809967 658.154785,354.038086 
	C657.673523,344.145233 658.380432,334.161072 659.062988,324.252716 
	C660.148193,308.497375 660.979370,292.676331 663.166321,277.057861 
	C665.628357,259.474365 668.492065,241.829147 672.956055,224.672592 
	C679.098999,201.062881 686.096558,177.599304 694.240723,154.608963 
	C701.681763,133.603180 710.050659,112.771149 719.960693,92.831718 
	C734.354919,63.870064 750.486267,35.771057 765.960510,7.349699 
	C766.521118,6.320066 767.966797,5.772316 769.000000,4.999996 
	C769.000000,153.900894 769.000000,302.801788 769.000000,452.000000 
	C698.979370,452.000000 628.958374,452.000000 558.357239,451.581665 
	C557.485596,448.943268 557.961182,446.100555 556.759033,444.619659 
	C553.128601,440.147186 548.846558,436.203644 544.962769,432.202454 
	C549.497742,426.584564 553.455322,421.681885 557.456665,416.725037 
	C546.526001,412.652588 544.377930,423.024719 537.997986,427.736053 
	C537.997986,420.422089 537.892578,413.966614 538.040161,407.516937 
	C538.119934,404.031403 537.601379,401.823395 533.236877,401.910858 
	C528.928223,401.997223 528.965454,404.494385 528.974854,407.534821 
	C529.020386,422.356445 528.998169,437.178253 529.000000,452.000000 
	C527.611084,452.000000 526.222229,452.000000 524.322144,451.539124 
	C523.868835,442.948090 524.161438,434.810791 523.916748,426.689728 
	C523.683472,418.947357 518.716858,414.470520 511.546509,415.035797 
	C506.151062,415.461121 500.769714,416.064941 495.000000,416.626465 
	C495.000000,428.153015 495.000000,440.076508 495.000000,452.000000 
M383.003082,175.500000 
	C383.003082,238.219452 383.003082,300.938904 383.003082,364.001587 
	C385.873047,364.001587 387.856964,364.001587 389.840851,364.001587 
	C417.329956,364.001587 444.821075,364.198547 472.307373,363.920288 
	C486.506653,363.776550 500.746338,362.969238 514.493408,358.909882 
	C534.320312,353.055206 550.539185,342.322693 559.424561,322.951172 
	C565.763977,309.130249 567.530884,294.471405 564.672729,279.434326 
	C561.748047,264.047363 553.810852,251.898697 540.269165,243.894699 
	C534.966553,240.760544 529.048157,238.668167 522.926270,235.880981 
	C524.269592,235.169525 525.403687,234.654251 526.450684,233.999664 
	C531.037903,231.131561 536.098328,228.781509 540.079834,225.227173 
	C553.266357,213.455460 558.328430,198.331787 558.107910,180.791534 
	C557.806946,156.859482 546.814453,139.895508 525.960022,129.070663 
	C511.732574,121.685661 496.114838,119.373962 480.392670,119.134644 
	C450.078369,118.673241 419.752045,119.000427 389.430725,119.000641 
	C387.487091,119.000648 385.543457,119.000641 383.003082,119.000641 
	C383.003082,137.943359 383.003082,156.221680 383.003082,175.500000 
M156.502457,280.997040 
	C146.189407,308.382782 135.876373,335.768524 125.515297,363.281799 
	C126.955536,363.668274 127.432602,363.907288 127.910240,363.908447 
	C144.903168,363.949341 161.897034,364.044952 178.887405,363.844849 
	C180.261292,363.828674 182.348465,362.026489 182.857376,360.607178 
	C187.700058,347.100769 192.396164,333.537750 196.840591,319.895294 
	C198.006989,316.314911 199.638885,314.900269 203.515564,314.921082 
	C231.504608,315.071472 259.495270,315.076019 287.484192,314.911407 
	C291.167786,314.889740 292.803802,316.211273 293.812561,319.532288 
	C297.788391,332.621216 302.073151,345.617889 305.919220,358.743713 
	C307.100952,362.776886 308.968475,364.188873 313.223633,364.104095 
	C327.046478,363.828857 340.878235,364.001404 354.706543,364.001526 
	C358.661621,364.001587 362.616669,364.001556 367.333374,364.001556 
	C366.519043,361.407074 366.015686,359.542084 365.354370,357.734955 
	C352.948639,323.834930 340.511322,289.946503 328.106934,256.045990 
	C311.850372,211.617844 295.576782,167.195770 279.463837,122.715553 
	C278.396790,119.769882 276.985443,118.938614 274.101318,118.957840 
	C259.440643,119.055542 244.778915,119.001083 230.117554,119.000549 
	C217.118988,119.000084 217.332260,119.079712 212.827774,131.201279 
	C203.579407,156.088577 194.033676,180.865173 184.694580,205.718979 
	C175.361313,230.557343 166.130829,255.434326 156.502457,280.997040 
M194.999985,52.399807 
	C194.998154,49.733719 195.062271,47.065636 194.981491,44.401939 
	C194.781357,37.802380 189.347427,31.873739 183.160538,32.145416 
	C176.313370,32.446095 170.330780,38.486000 170.854980,44.585011 
	C171.475845,51.808697 171.000870,59.126568 171.000870,66.928299 
	C164.379013,66.928299 158.373230,67.390373 152.504028,66.696762 
	C150.214264,66.426163 147.148468,63.920952 146.420197,61.763741 
	C145.720169,59.690189 146.834686,56.035141 148.464142,54.326408 
	C153.281296,49.274853 153.535126,49.516907 148.797485,44.132107 
	C147.832947,44.647808 146.833862,45.200233 145.818863,45.721661 
	C139.437592,48.999893 135.994965,57.172180 138.026993,63.695374 
	C140.340317,71.121567 145.778061,74.985146 154.649689,74.998001 
	C160.815155,75.006935 166.983871,74.875343 173.145035,75.037788 
	C177.471497,75.151863 179.108917,73.205505 179.034912,69.020485 
	C178.902359,61.524315 178.734512,54.008369 179.172531,46.535336 
	C179.298859,44.380096 181.447983,42.343430 182.669724,40.252399 
	C184.111679,42.359432 186.476532,44.334213 186.801422,46.601326 
	C187.456650,51.173695 187.017563,55.905083 187.001648,60.570782 
	C186.986633,64.974739 188.652481,67.180397 193.558365,67.083702 
	C206.384247,66.830879 219.219727,67.108986 232.048798,66.957718 
	C239.334290,66.871811 246.616730,66.054283 253.897018,66.102272 
	C267.680298,66.193108 281.459839,66.786476 295.243408,66.924782 
	C300.194214,66.974464 304.536041,63.439915 304.879333,59.266754 
	C305.238617,54.899212 304.980804,50.482872 305.043549,46.088585 
	C305.214020,34.140850 292.151978,29.079868 281.774292,34.796558 
	C279.693481,35.942791 277.641754,37.141747 274.794983,38.760975 
	C274.794983,31.313467 274.794983,24.871437 274.794983,18.638308 
	C269.331177,16.652126 267.622955,19.580149 267.132690,23.687134 
	C266.799042,26.482309 267.006378,29.344212 267.003387,32.176308 
	C266.994141,40.946648 267.000031,49.717007 267.000031,58.644424 
	C263.022369,58.644424 259.794067,58.644424 256.405334,58.644424 
	C255.993973,50.309231 255.598831,42.302761 255.210022,34.424538 
	C252.227249,34.424538 250.332764,34.424538 247.823486,34.424538 
	C247.823486,42.722355 247.823486,50.630993 247.823486,58.617111 
	C229.971542,58.617111 212.745956,58.617111 195.239792,58.617111 
	C195.148865,56.616383 195.074631,54.982983 194.999985,52.399807 
M421.376068,57.779560 
	C424.488525,64.596420 429.826111,67.252007 437.242157,67.073143 
	C448.795410,66.794510 460.360321,66.999611 471.920288,66.999603 
	C488.407288,66.999596 504.894623,67.054718 521.381042,66.956238 
	C524.999023,66.934624 528.616760,66.077576 532.229126,66.116684 
	C537.845337,66.177498 543.453796,66.835098 549.071167,66.940521 
	C553.677307,67.026962 557.276245,64.145615 557.619995,60.069588 
	C558.338684,51.547279 557.837708,42.922127 557.837708,34.425858 
	C554.900513,34.425858 552.667786,34.425858 549.822998,34.425858 
	C549.822998,42.730026 549.822998,50.635067 549.822998,58.619087 
	C544.304077,58.619087 539.412170,58.619087 534.000549,58.619087 
	C534.000549,52.121296 534.021118,45.994564 533.994568,39.868031 
	C533.969360,34.067596 532.577148,32.932434 526.095642,33.704346 
	C525.564514,41.969173 525.028687,50.306614 524.496582,58.585400 
	C504.889374,58.585400 485.671600,58.585400 466.000183,58.585400 
	C466.000183,51.543007 466.000153,44.908520 466.000153,38.274033 
	C466.000153,31.666355 466.000183,25.058678 466.000183,18.579031 
	C458.411804,17.481709 458.014679,17.795048 458.002838,24.410580 
	C457.988525,32.404251 457.999969,40.397964 458.000183,48.391659 
	C458.000244,51.804897 458.000183,55.218140 458.000183,58.973751 
	C449.793335,58.973751 442.454254,59.336044 435.190887,58.753643 
	C433.003387,58.578239 430.148254,56.164085 429.220520,54.060368 
	C428.425262,52.257046 429.459900,49.161888 430.584686,47.137856 
	C431.634399,45.248913 433.868225,44.017963 435.705261,42.386887 
	C434.575958,40.241665 433.458496,38.118942 432.367004,36.045601 
	C421.716187,40.739117 418.254883,47.430168 421.376068,57.779560 
M311.954071,41.832874 
	C310.276978,48.088753 309.972107,54.419693 313.193817,60.164715 
	C317.298248,67.483742 324.857025,67.163338 332.358398,67.063866 
	C329.358002,74.394768 322.779053,70.746437 318.204041,72.671082 
	C318.070435,75.033745 317.942200,77.301674 317.813904,79.570374 
	C328.242096,81.226257 337.231232,80.248764 341.227631,68.433998 
	C341.515076,67.584290 343.951111,67.078613 345.394897,67.063644 
	C356.389557,66.949608 367.386108,67.036758 378.381622,66.976463 
	C383.016510,66.951050 387.628326,63.819595 387.809937,59.789024 
	C388.189301,51.369232 387.924805,42.920429 387.924805,34.358635 
	C385.016174,34.358635 382.784637,34.358635 379.940918,34.358635 
	C379.940918,42.597359 379.940918,50.502411 379.940918,58.680157 
	C366.761688,58.680157 354.203613,58.680157 341.111328,58.680157 
	C340.915710,47.654610 342.826233,35.176125 327.804657,32.617294 
	C321.155548,31.484671 315.171600,34.200348 311.954071,41.832874 
M53.972198,79.968307 
	C62.372307,77.640007 65.845032,74.218170 65.961960,67.697868 
	C66.096123,60.216133 66.124130,52.727001 65.944542,45.247173 
	C65.834305,40.655930 63.519020,37.317657 59.536209,34.791126 
	C50.096733,28.803114 39.525623,33.884590 36.735096,44.200268 
	C34.179405,53.647823 38.738480,68.320488 52.731693,67.034782 
	C54.375591,66.883728 56.064026,67.217339 57.968910,67.341766 
	C56.129929,72.007904 52.913963,72.099014 49.428146,72.041573 
	C43.410252,71.942398 42.477940,73.266563 43.809235,79.989998 
	C46.824303,79.989998 49.954166,79.989998 53.972198,79.968307 
M88.432648,67.000023 
	C89.763702,66.999908 91.094772,67.002960 92.425819,66.999184 
	C101.304596,66.974037 104.988441,63.221550 104.998062,54.177380 
	C105.005493,47.189312 104.999641,40.201225 104.999672,33.213150 
	C104.999687,28.283340 104.999664,23.353531 104.999664,18.395210 
	C101.978912,18.395210 99.752617,18.395210 96.999733,18.395210 
	C96.999733,29.551489 97.002266,40.331043 96.998894,51.110600 
	C96.996437,58.988026 96.992973,58.990799 88.863159,58.998474 
	C83.425957,59.003605 77.988739,58.999454 72.320663,58.999454 
	C72.320663,61.914669 72.320663,64.144615 72.320663,67.000008 
	C77.561073,67.000008 82.507622,67.000008 88.432648,67.000023 
M118.776978,18.983955 
	C116.357346,18.622734 113.937714,18.261513 111.389488,17.881094 
	C111.389488,34.764149 111.389488,50.657570 111.389488,66.615204 
	C114.014313,66.615204 116.245049,66.615204 118.934280,66.615204 
	C118.934280,50.798382 118.934280,35.349018 118.776978,18.983955 
M400.975616,64.140404 
	C400.983521,50.809204 401.005005,37.477989 400.993378,24.146805 
	C400.987854,17.810675 400.216400,17.264874 393.327271,18.730864 
	C393.327271,34.584595 393.327271,50.486862 393.327271,67.789330 
	C396.278778,66.727135 398.597687,65.892593 400.975616,64.140404 
M81.005516,45.472878 
	C81.005516,49.201862 81.005516,52.930847 81.005516,56.551826 
	C84.168427,56.551826 86.386772,56.551826 88.632736,56.551826 
	C88.632736,45.239483 88.632736,34.368263 88.632736,23.353233 
	C86.036888,23.353233 83.812096,23.353233 81.017822,23.353233 
	C81.017822,30.617504 81.017822,37.549961 81.005516,45.472878 
M82.228981,8.697335 
	C80.750671,12.543941 79.272354,16.390547 77.614082,20.705399 
	C83.401115,20.705399 88.273827,20.705399 93.024414,20.705399 
	C93.778709,13.852426 88.130440,16.984274 85.145416,15.393967 
	C85.542206,14.250319 85.920891,13.158833 86.320358,12.007456 
	C87.571869,13.048676 88.557053,13.868317 89.719025,14.835040 
	C90.925201,13.471595 91.987328,12.270987 93.030418,11.091889 
	C90.375069,6.571379 86.991295,5.912512 82.228981,8.697335 
M448.004150,35.930115 
	C449.540985,36.146889 451.077850,36.363663 452.746857,36.599083 
	C451.194885,30.179558 445.804108,27.453821 442.713654,31.525055 
	C440.225983,34.802269 439.261902,39.236031 437.379242,43.736473 
	C443.215240,43.736473 447.809875,43.736473 452.574585,43.736473 
	C453.597229,36.883575 447.820648,40.084618 444.659729,37.981014 
	C445.654999,37.141666 446.470093,36.454281 448.004150,35.930115 
M395.452148,408.789307 
	C397.831970,409.397064 400.207825,410.375702 402.593842,410.401093 
	C403.374756,410.409393 404.750702,407.985931 404.863373,406.594391 
	C405.128937,403.313507 403.293030,401.041046 399.912659,401.139740 
	C395.566040,401.266602 394.407562,404.122559 395.452148,408.789307 
M35.430176,410.981750 
	C39.549084,410.830505 40.636356,408.040344 39.766842,404.848877 
	C39.345886,403.303802 36.763309,401.066376 35.579784,401.297241 
	C33.581219,401.687103 30.864702,403.485535 30.355301,405.243652 
	C29.564093,407.974365 30.731222,410.889160 35.430176,410.981750 
M152.279816,87.018463 
	C154.418686,87.072762 156.950867,87.831116 158.557922,86.933388 
	C159.625977,86.336777 160.192505,82.121452 159.555878,81.704216 
	C157.644531,80.451515 155.032730,80.267563 152.087524,79.510666 
	C152.087524,82.566322 152.087524,84.367722 152.279816,87.018463 
M162.295151,80.946060 
	C162.295151,83.158066 162.295151,85.370079 162.295151,87.659271 
	C164.667862,87.659271 166.551376,87.659271 168.615662,87.659271 
	C168.939682,85.064278 169.226562,82.766579 169.571762,80.001915 
	C167.069901,80.120255 164.980408,80.219093 162.295151,80.946060 
M546.314575,78.092491 
	C548.641296,78.446747 550.968079,78.800995 553.544189,79.193214 
	C553.544189,76.372475 553.544189,74.356003 553.544189,72.412636 
	C550.863037,72.412636 548.625549,72.412636 546.097717,72.412636 
	C546.097717,74.289963 546.097717,75.765663 546.314575,78.092491 
M290.245850,27.903910 
	C290.979553,25.543686 291.713257,23.183464 292.603302,20.320358 
	C289.408478,20.320358 287.506561,20.320358 285.205475,20.320358 
	C285.639526,23.698317 282.469360,28.416447 290.245850,27.903910 
M526.301147,20.940212 
	C526.301147,23.179337 526.301147,25.418459 526.301147,27.587965 
	C528.770081,27.587965 530.672913,27.587965 532.630737,27.587965 
	C532.630737,24.954826 532.630737,22.717754 532.630737,20.312281 
	C530.486023,20.312281 528.699280,20.312281 526.301147,20.940212 
M249.762390,78.905754 
	C251.357559,78.905754 252.952713,78.905754 254.642120,78.905754 
	C254.642120,76.325562 254.642120,74.422089 254.642120,72.324142 
	C252.396957,72.324142 250.492050,72.324142 247.778778,72.324142 
	C248.208481,74.722099 248.564697,76.709946 249.762390,78.905754 
M382.091003,72.307014 
	C380.182770,72.307014 378.274536,72.307014 376.399658,72.307014 
	C376.399658,74.753975 376.399658,76.659393 376.399658,78.634857 
	C378.688599,78.634857 380.594208,78.634857 382.701141,78.634857 
	C382.701141,76.504623 382.701141,74.717918 382.091003,72.307014 
z"/>
<path fill="#EF2E24" opacity="1.000000" stroke="none" 
	d="
M769.000000,4.499996 
	C767.966797,5.772316 766.521118,6.320066 765.960510,7.349699 
	C750.486267,35.771057 734.354919,63.870064 719.960693,92.831718 
	C710.050659,112.771149 701.681763,133.603180 694.240723,154.608963 
	C686.096558,177.599304 679.098999,201.062881 672.956055,224.672592 
	C668.492065,241.829147 665.628357,259.474365 663.166321,277.057861 
	C660.979370,292.676331 660.148193,308.497375 659.062988,324.252716 
	C658.380432,334.161072 657.673523,344.145233 658.154785,354.038086 
	C658.873474,368.809967 660.596191,383.534485 661.961548,398.272644 
	C662.488464,403.960724 663.206116,409.631134 663.412109,415.513000 
	C643.484863,387.313416 629.449280,356.366730 620.452820,322.997101 
	C611.345581,289.216492 609.323059,254.932388 611.846130,220.164108 
	C614.368958,185.399490 623.485352,152.449738 638.083069,120.234619 
	C609.449768,120.234619 581.124573,120.234619 552.799316,120.234619 
	C552.687683,119.866173 552.575989,119.497726 552.464294,119.129288 
	C556.005005,117.079681 559.499756,114.945488 563.094299,112.995056 
	C579.176147,104.268730 595.342773,95.697128 611.373596,86.878532 
	C637.143188,72.702690 662.804626,58.330269 688.561157,44.130630 
	C703.871521,35.690010 719.313721,27.488594 734.626160,19.051609 
	C745.040283,13.313483 755.332275,7.353549 765.339478,1.246404 
	C767.019409,1.085211 769.894348,0.029742 769.000000,4.499996 
z"/>
<path fill="#00468C" opacity="1.000000" stroke="none" 
	d="
M1.000000,119.468658 
	C50.759300,119.000000 100.518600,119.000000 150.638092,119.000000 
	C150.638092,134.448074 150.638092,149.336319 150.638092,164.836304 
	C118.942184,164.836304 87.390060,164.836304 55.421326,164.836304 
	C55.421326,183.326569 55.421326,201.214249 55.421326,219.717133 
	C83.269081,219.717133 111.156723,219.717133 139.929993,219.717133 
	C139.929993,233.980194 139.929993,247.655396 139.929993,261.887573 
	C112.327637,261.887573 84.082603,261.887573 55.234970,261.887573 
	C55.234970,295.987762 55.234970,329.538696 55.234970,364.000275 
	C37.074200,364.000275 19.505756,364.000275 1.468657,364.000122 
	C1.000000,282.645782 1.000000,201.291550 1.000000,119.468658 
z"/>
<path fill="#00468C" opacity="1.000000" stroke="none" 
	d="
M428.468414,452.000000 
	C428.026367,437.363922 428.048950,422.727844 428.096130,408.091827 
	C428.097626,407.627747 428.352295,407.164459 428.793701,405.666595 
	C435.132080,406.107391 441.685303,406.293091 448.165924,407.077911 
	C457.564026,408.216034 460.495026,418.106964 455.013214,425.442566 
	C454.519897,426.102692 453.955627,426.709778 453.418671,427.348297 
	C462.482452,433.883240 460.525024,448.924805 448.444214,450.486359 
	C448.223145,450.514923 448.058838,450.982880 447.934021,451.622925 
	C441.645599,452.000000 435.291199,452.000000 428.468414,452.000000 
M441.274811,431.003113 
	C439.675018,431.108185 438.075256,431.213257 436.345276,431.326874 
	C436.345276,435.656799 436.345276,439.552032 436.345276,444.393616 
	C439.967468,443.838135 443.346954,443.866394 446.216858,442.671112 
	C447.890564,441.973999 449.692688,439.327148 449.707977,437.542694 
	C449.723236,435.764709 447.816132,433.716888 446.292114,432.272552 
	C445.352539,431.382141 443.552399,431.399811 441.274811,431.003113 
M435.999939,418.553406 
	C435.999939,420.500732 435.999939,422.448059 435.999939,425.184479 
	C439.863922,424.650848 443.242889,424.718140 446.128235,423.557831 
	C447.546539,422.987457 448.655365,420.178345 448.764008,418.315887 
	C448.841644,416.985291 447.286133,414.740967 445.994476,414.315460 
	C443.106842,413.364136 439.928650,413.294617 436.410034,412.801605 
	C436.244293,414.763092 436.122803,416.200836 435.999939,418.553406 
z"/>
<path fill="#00468C" opacity="1.000000" stroke="none" 
	d="
M256.468262,452.000000 
	C256.000000,436.910278 256.000000,421.820557 256.000000,406.052521 
	C266.600891,406.441223 277.206848,403.808838 285.518402,412.100342 
	C295.741638,422.298889 293.938965,446.918976 275.885590,450.235626 
	C275.500427,450.306396 275.210052,450.893250 274.937744,451.619690 
	C268.978851,452.000000 262.957703,452.000000 256.468262,452.000000 
M276.872375,441.567261 
	C282.914307,437.283325 284.328949,427.387543 280.731964,419.651642 
	C278.435089,414.711761 270.785461,412.105286 264.354309,413.862610 
	C264.354309,423.731293 264.354309,433.617401 264.354309,444.601959 
	C268.668793,443.624725 272.419250,442.775238 276.872375,441.567261 
z"/>
<path fill="#00468C" opacity="1.000000" stroke="none" 
	d="
M175.466858,452.000000 
	C173.807999,450.992523 172.616013,449.985046 171.235748,448.818451 
	C171.235748,433.732819 171.235748,418.295593 171.235748,402.434082 
	C174.018021,402.434082 176.579163,402.434082 179.789612,402.434082 
	C179.789612,406.925568 179.789612,411.491028 179.789612,416.077332 
	C183.832901,415.771027 187.385788,414.760223 190.607056,415.405365 
	C198.377228,416.961548 203.510910,427.463104 201.813980,436.369843 
	C200.506348,443.233246 196.563553,447.863922 190.901047,451.647552 
	C185.977905,452.000000 180.955811,452.000000 175.466858,452.000000 
M188.795013,443.562866 
	C194.524017,437.108459 194.611267,426.951324 188.619736,423.514954 
	C186.813828,422.479248 183.928009,422.681763 181.764343,423.224274 
	C180.869156,423.448761 180.191528,426.029877 180.079926,427.586884 
	C179.831131,431.057770 179.995865,434.558655 180.001175,438.047333 
	C180.012512,445.504700 180.783844,446.060486 188.795013,443.562866 
z"/>
<path fill="#00468C" opacity="1.000000" stroke="none" 
	d="
M366.466125,452.000000 
	C366.001068,451.678894 366.049164,451.084473 365.996429,451.075378 
	C359.851013,450.016479 361.013092,445.275421 361.007111,441.164764 
	C360.988495,428.358826 361.000305,415.552856 361.000305,402.379517 
	C363.979248,402.379517 366.549011,402.379517 369.779663,402.379517 
	C369.779663,406.920166 369.779663,411.490753 369.779663,416.073914 
	C373.830658,415.796417 377.397034,414.795441 380.605896,415.477142 
	C389.488403,417.364349 394.133484,428.170135 391.413025,438.282990 
	C389.770416,444.389008 385.809326,448.160614 380.900848,451.647552 
	C376.310760,452.000000 371.621490,452.000000 366.466125,452.000000 
M370.000000,436.437866 
	C370.000000,439.175293 370.000000,441.912720 370.000000,444.554413 
	C377.532379,445.313690 380.734833,443.441803 382.641144,437.728882 
	C384.277863,432.823944 382.508972,425.447418 378.624023,423.515869 
	C376.715454,422.566986 373.946228,422.678467 371.791840,423.214935 
	C370.893066,423.438751 370.242249,425.981964 370.077728,427.534027 
	C369.800385,430.150269 370.000610,432.817169 370.000000,436.437866 
z"/>
<path fill="#00468C" opacity="1.000000" stroke="none" 
	d="
M127.449974,452.000000 
	C130.175949,443.011932 133.315674,434.010834 136.541382,425.040649 
	C138.494553,419.609192 140.431992,414.161346 142.716858,408.867767 
	C143.258636,407.612579 145.192719,406.142548 146.440247,406.183258 
	C148.797302,406.260254 152.690674,406.759766 153.216415,408.130493 
	C158.687393,422.394196 163.614716,436.866455 168.846436,451.640411 
	C165.969406,452.000000 162.938812,452.000000 159.577789,451.610168 
	C158.536530,448.862823 158.101028,446.367126 157.012589,444.199188 
	C156.349701,442.878845 154.744034,441.268433 153.451721,441.165070 
	C148.861221,440.797852 144.223434,441.021790 139.493790,441.021790 
	C138.252060,444.923584 137.126022,448.461792 136.000000,452.000000 
	C133.299988,452.000000 130.599976,452.000000 127.449974,452.000000 
M150.468140,424.011200 
	C149.876984,421.915283 149.285828,419.819336 148.694672,417.723419 
	C148.287292,417.682709 147.879898,417.642029 147.472519,417.601318 
	C145.673538,422.867310 143.874573,428.133301 141.938995,433.799194 
	C146.080551,433.799194 149.518524,433.799194 152.937531,433.799194 
	C153.021011,433.324188 153.183990,432.991211 153.110474,432.723083 
	C152.376129,430.044647 151.602844,427.376953 150.468140,424.011200 
z"/>
<path fill="#00468C" opacity="1.000000" stroke="none" 
	d="
M529.449951,452.000000 
	C528.998169,437.178253 529.020386,422.356445 528.974854,407.534821 
	C528.965454,404.494385 528.928223,401.997223 533.236877,401.910858 
	C537.601379,401.823395 538.119934,404.031403 538.040161,407.516937 
	C537.892578,413.966614 537.997986,420.422089 537.997986,427.736053 
	C544.377930,423.024719 546.526001,412.652588 557.456665,416.725037 
	C553.455322,421.681885 549.497742,426.584564 544.962769,432.202454 
	C548.846558,436.203644 553.128601,440.147186 556.759033,444.619659 
	C557.961182,446.100555 557.485596,448.943268 557.888550,451.581665 
	C555.958313,452.000000 553.916687,452.000000 551.542725,451.654236 
	C546.994568,446.683044 542.778748,442.057648 538.000000,436.814636 
	C538.000000,442.313782 538.000000,447.156891 538.000000,452.000000 
	C535.299988,452.000000 532.599976,452.000000 529.449951,452.000000 
z"/>
<path fill="#00468C" opacity="1.000000" stroke="none" 
	d="
M1.000000,46.468651 
	C3.120916,46.000000 5.241833,46.000000 8.000507,46.000000 
	C8.000507,50.332409 7.894701,54.114735 8.041936,57.887177 
	C8.124447,60.001251 8.525105,62.120090 8.960395,64.199524 
	C9.787869,68.152466 12.250335,70.494926 16.336061,69.863983 
	C20.601040,69.205345 22.974340,66.371582 22.983681,61.912647 
	C23.009809,49.439224 22.996939,36.965721 22.999323,24.492249 
	C22.999697,22.541298 22.999374,20.590349 22.999374,18.328529 
	C25.827150,18.328529 28.055292,18.328529 31.000330,18.328529 
	C31.000330,23.309635 31.000319,28.076248 31.000334,32.842861 
	C31.000360,42.322704 30.920828,51.803444 31.027658,61.282085 
	C31.102217,67.897385 29.258512,73.468781 22.912628,76.462692 
	C15.830909,79.803757 10.333468,78.523407 4.034498,72.557068 
	C3.321594,71.881805 2.471837,71.351036 1.342770,70.876633 
	C1.000000,62.979099 1.000000,54.958202 1.000000,46.468651 
z"/>
<path fill="#00468C" opacity="1.000000" stroke="none" 
	d="
M297.444153,452.000000 
	C297.000000,435.560883 297.000000,419.121735 297.000000,402.351593 
	C299.811279,402.351593 302.043762,402.351593 304.829468,402.351593 
	C304.829468,407.083801 304.829468,411.677582 304.829468,415.855988 
	C309.504547,415.855988 313.649811,415.537659 317.725311,415.935089 
	C323.031067,416.452454 324.811615,420.528870 324.917053,425.103821 
	C325.116455,433.756622 324.870483,442.419739 324.904785,451.539276 
	C322.629425,452.000000 320.258881,452.000000 317.539185,451.539246 
	C317.130249,450.250122 317.021210,449.421967 317.018341,448.593384 
	C316.995422,441.939911 317.049438,435.285553 316.961884,428.633057 
	C316.910797,424.751160 314.815369,422.168610 310.950500,422.172302 
	C307.137543,422.175934 304.650482,423.816376 304.893127,428.580902 
	C305.289764,436.368896 305.000122,444.191803 305.000000,452.000000 
	C302.629425,452.000000 300.258881,452.000000 297.444153,452.000000 
z"/>
<path fill="#00468C" opacity="1.000000" stroke="none" 
	d="
M211.460632,452.000000 
	C204.611664,441.958832 203.268509,433.512665 205.470444,416.440369 
	C207.961182,416.440369 210.525009,416.440369 214.015686,416.440369 
	C214.015686,423.580200 213.998734,430.830994 214.021423,438.081665 
	C214.037399,443.183685 216.594345,444.950806 221.491440,444.148926 
	C224.733521,443.618042 225.040924,441.849731 225.024384,439.297302 
	C224.976013,431.827209 225.007187,424.356537 225.007187,416.449219 
	C227.996170,416.449219 230.557007,416.449219 233.811020,416.449219 
	C233.811020,427.927460 233.811020,439.502899 233.905518,451.539154 
	C231.958328,452.000000 229.916672,452.000000 227.510254,451.628479 
	C224.720428,449.419464 223.937820,449.559723 223.000000,452.000000 
	C219.307098,452.000000 215.614182,452.000000 211.460632,452.000000 
z"/>
<path fill="#00468C" opacity="1.000000" stroke="none" 
	d="
M467.460632,452.000000 
	C465.347290,449.392303 462.770233,446.966492 462.214691,444.142914 
	C460.531342,435.587616 465.308411,430.829010 475.567352,430.029327 
	C477.034973,429.914948 478.519165,430.013519 479.998169,430.013519 
	C479.706360,421.897247 479.085449,421.631683 465.275421,423.447815 
	C465.275421,421.164703 465.275421,418.911285 465.275421,416.256561 
	C469.380524,415.825928 473.281464,415.020294 477.165863,415.093353 
	C484.799164,415.236786 488.569092,419.526917 488.968384,427.964569 
	C489.109497,430.946808 488.951813,433.941956 489.012054,436.929565 
	C489.079407,440.270935 488.113068,443.826965 492.132507,446.098022 
	C493.024384,446.601898 492.603271,449.429749 492.893341,451.593781 
	C490.299988,452.000000 487.599976,452.000000 484.572327,451.668793 
	C481.076660,448.767059 480.742889,448.809235 479.000000,452.000000 
	C475.307098,452.000000 471.614166,452.000000 467.460632,452.000000 
M473.207428,444.624512 
	C479.510773,445.231873 480.757690,443.882324 480.548645,436.451172 
	C476.844147,435.509094 473.155731,435.540405 470.900330,439.016388 
	C470.277222,439.976715 471.940277,442.420502 473.207428,444.624512 
z"/>
<path fill="#00468C" opacity="1.000000" stroke="none" 
	d="
M334.458069,452.000000 
	C332.567902,450.367218 330.841858,448.907867 329.757538,447.069885 
	C326.154266,440.962219 328.042877,432.828674 336.632782,431.080505 
	C339.845612,430.426605 343.117004,430.060638 346.346771,429.565674 
	C347.162506,422.440155 343.737457,421.043060 331.832275,423.591309 
	C330.106842,417.464417 330.461060,416.850830 336.343048,415.955566 
	C338.616364,415.609558 340.937805,414.889130 343.170135,415.089172 
	C351.136688,415.802979 355.779022,420.229156 355.067780,427.304413 
	C354.686951,431.092896 354.721100,434.980286 355.113159,438.766571 
	C355.328369,440.844849 356.835144,442.757355 357.467773,444.833527 
	C358.093689,446.887665 358.352570,449.053650 358.886230,451.585266 
	C356.299988,452.000000 353.599976,452.000000 350.571289,451.657898 
	C347.629547,448.537109 346.930298,448.628357 345.000000,452.000000 
	C341.638702,452.000000 338.277435,452.000000 334.458069,452.000000 
M342.019714,436.127136 
	C340.359253,437.643890 338.698792,439.160675 337.038330,440.677460 
	C338.499237,442.108093 339.809784,444.498077 341.454559,444.755920 
	C344.283234,445.199402 346.872162,444.024261 347.049927,440.177643 
	C347.199341,436.944061 346.149384,435.494019 342.019714,436.127136 
z"/>
<path fill="#00468C" opacity="1.000000" stroke="none" 
	d="
M495.444153,452.000000 
	C495.000000,440.076508 495.000000,428.153015 495.000000,416.626465 
	C500.769714,416.064941 506.151062,415.461121 511.546509,415.035797 
	C518.716858,414.470520 523.683472,418.947357 523.916748,426.689728 
	C524.161438,434.810791 523.868835,442.948090 523.905518,451.539124 
	C521.299988,452.000000 518.599976,452.000000 515.523376,451.544983 
	C515.096008,443.206696 514.916382,435.321228 515.051086,427.441101 
	C515.114685,423.721130 513.048950,421.892853 510.004211,422.233398 
	C507.018127,422.567383 502.697937,421.957428 502.922668,427.587952 
	C503.246979,435.713379 503.002045,443.861542 503.000000,452.000000 
	C500.629425,452.000000 498.258881,452.000000 495.444153,452.000000 
z"/>
<path fill="#00468C" opacity="1.000000" stroke="none" 
	d="
M1.000000,406.468658 
	C9.453928,406.000000 17.907856,406.000000 26.668518,406.000000 
	C26.668518,408.837158 26.668518,411.067993 26.668518,413.920258 
	C20.878988,413.920258 15.300944,413.920258 9.370661,413.920258 
	C9.370661,417.428040 9.370661,420.325806 9.370661,423.845093 
	C14.379266,423.845093 19.288605,423.845093 24.581303,423.845093 
	C24.581303,426.355316 24.581303,428.257080 24.581303,430.766846 
	C19.741337,430.766846 14.825538,430.766846 8.810031,430.766846 
	C8.810031,437.921692 8.810031,444.500153 8.905016,451.539307 
	C6.355131,452.000000 3.710262,452.000000 1.000000,452.000000 
	C1.000000,436.979156 1.000000,421.958252 1.000000,406.468658 
z"/>
<path fill="#00468C" opacity="1.000000" stroke="none" 
	d="
M69.466118,452.000000 
	C67.125580,449.421448 64.320824,447.091888 66.903618,443.057922 
	C68.969559,443.571289 71.145653,444.385742 73.376884,444.586029 
	C75.424728,444.769897 77.649696,444.631866 79.565964,443.968933 
	C80.603577,443.609955 81.651337,441.904663 81.763557,440.718567 
	C81.841476,439.895142 80.495445,438.643036 79.504158,438.065399 
	C75.990166,436.017548 71.798775,434.786987 68.884949,432.128021 
	C63.242687,426.979248 66.057457,417.415710 73.566711,416.098755 
	C78.072197,415.308624 82.829384,415.953644 87.698273,415.953644 
	C87.698273,418.577515 87.698273,420.483978 87.698273,422.543427 
	C83.171234,423.924133 77.848816,419.338715 73.577843,425.745758 
	C76.764282,427.344696 79.675194,429.598297 82.916573,430.279602 
	C91.773033,432.140991 92.299187,445.735687 85.647812,449.723907 
	C84.971954,450.129181 84.435555,450.767059 83.917213,451.648499 
	C79.310745,452.000000 74.621490,452.000000 69.466118,452.000000 
z"/>
<path fill="#00468C" opacity="1.000000" stroke="none" 
	d="
M99.463181,452.000000 
	C93.331657,444.493286 95.312042,435.748199 94.976189,427.368347 
	C94.885429,425.103699 96.000130,422.219452 92.096970,421.527374 
	C91.678299,421.453156 91.580399,416.605774 91.755432,416.577423 
	C97.297729,415.680115 95.480202,411.083740 96.393433,407.449341 
	C98.331337,407.449341 100.352409,407.449341 102.673035,407.449341 
	C102.891121,410.165741 103.098740,412.751709 103.328751,415.616516 
	C105.766945,415.854370 108.017822,416.073975 110.666542,416.332397 
	C110.767372,418.026855 110.861015,419.600494 110.979027,421.583740 
	C108.405266,421.838104 106.147957,422.061188 103.716934,422.301422 
	C103.716934,429.336914 103.716934,436.309875 103.716934,443.601990 
	C106.657242,443.869019 108.918800,444.074402 111.791634,444.335266 
	C111.791634,446.637421 111.791634,448.883545 111.895813,451.564819 
	C107.975456,452.000000 103.950912,452.000000 99.463181,452.000000 
z"/>
<path fill="#00468C" opacity="1.000000" stroke="none" 
	d="
M45.449982,452.000000 
	C45.000000,440.246338 45.000000,428.492706 45.000000,416.458191 
	C51.755344,416.091064 58.005859,415.751373 64.630394,415.391357 
	C64.630394,417.650604 64.630394,419.897278 64.628525,422.149109 
	C64.370308,422.351135 64.131065,422.691223 63.855141,422.724152 
	C53.032757,424.017090 53.191483,424.003052 53.920425,435.139313 
	C54.266563,440.427338 53.872795,445.763763 53.907112,451.539124 
	C51.299988,452.000000 48.599972,452.000000 45.449982,452.000000 
z"/>
<path fill="#000000" opacity="1.000000" stroke="none" 
	d="
M503.460632,452.000000 
	C503.002045,443.861542 503.246979,435.713379 502.922668,427.587952 
	C502.697937,421.957428 507.018127,422.567383 510.004211,422.233398 
	C513.048950,421.892853 515.114685,423.721130 515.051086,427.441101 
	C514.916382,435.321228 515.096008,443.206696 515.073364,451.544983 
	C511.307098,452.000000 507.614166,452.000000 503.460632,452.000000 
z"/>
<path fill="#000000" opacity="1.000000" stroke="none" 
	d="
M305.460632,452.000000 
	C305.000122,444.191803 305.289764,436.368896 304.893127,428.580902 
	C304.650482,423.816376 307.137543,422.175934 310.950500,422.172302 
	C314.815369,422.168610 316.910797,424.751160 316.961884,428.633057 
	C317.049438,435.285553 316.995422,441.939911 317.018341,448.593384 
	C317.021210,449.421967 317.130249,450.250122 317.095032,451.539246 
	C313.307098,452.000000 309.614166,452.000000 305.460632,452.000000 
z"/>
<path fill="#00468C" opacity="1.000000" stroke="none" 
	d="
M396.444153,452.000000 
	C396.000000,440.251160 396.000000,428.502350 396.000000,416.385376 
	C398.735809,416.385376 400.964050,416.385376 403.810638,416.385376 
	C403.810638,427.968018 403.810638,439.523193 403.905334,451.539185 
	C401.629425,452.000000 399.258881,452.000000 396.444153,452.000000 
z"/>
<path fill="#00468C" opacity="1.000000" stroke="none" 
	d="
M31.444164,452.000000 
	C31.000000,440.251190 31.000000,428.502380 31.000000,416.385406 
	C33.735577,416.385406 35.963787,416.385406 38.810513,416.385406 
	C38.810513,427.968109 38.810513,439.523254 38.905258,451.539185 
	C36.629444,452.000000 34.258884,452.000000 31.444164,452.000000 
z"/>
<path fill="#000000" opacity="1.000000" stroke="none" 
	d="
M136.468628,452.000000 
	C137.126022,448.461792 138.252060,444.923584 139.493790,441.021790 
	C144.223434,441.021790 148.861221,440.797852 153.451721,441.165070 
	C154.744034,441.268433 156.349701,442.878845 157.012589,444.199188 
	C158.101028,446.367126 158.536530,448.862823 159.123688,451.610168 
	C151.645752,452.000000 144.291504,452.000000 136.468628,452.000000 
z"/>
<path fill="#00468C" opacity="1.000000" stroke="none" 
	d="
M401.562500,0.999995 
	C402.919312,2.991857 403.838593,4.983722 405.366241,8.293706 
	C402.536926,8.067829 400.470703,7.902873 398.035217,7.708435 
	C397.989227,7.854909 397.611633,9.057690 397.085052,10.734990 
	C399.182465,10.851421 400.974121,10.751222 402.658508,11.129128 
	C403.492889,11.316330 404.129883,12.383403 404.856201,13.052366 
	C404.094727,13.686868 403.356750,14.833690 402.567902,14.869840 
	C398.514130,15.055605 394.447266,14.955910 389.235962,14.955910 
	C391.513550,9.912805 393.362335,5.819243 395.105560,1.362841 
	C397.041656,1.000000 399.083344,1.000000 401.562500,0.999995 
z"/>
<path fill="#000000" opacity="1.000000" stroke="none" 
	d="
M538.463196,452.000000 
	C538.000000,447.156891 538.000000,442.313782 538.000000,436.814636 
	C542.778748,442.057648 546.994568,446.683044 551.105225,451.654236 
	C546.975464,452.000000 542.950928,452.000000 538.463196,452.000000 
z"/>
<path fill="#000000" opacity="1.000000" stroke="none" 
	d="
M345.416656,452.000000 
	C346.930298,448.628357 347.629547,448.537109 350.121277,451.657898 
	C348.611115,452.000000 347.222198,452.000000 345.416656,452.000000 
z"/>
<path fill="#000000" opacity="1.000000" stroke="none" 
	d="
M479.416656,452.000000 
	C480.742889,448.809235 481.076660,448.767059 484.122375,451.668793 
	C482.611115,452.000000 481.222198,452.000000 479.416656,452.000000 
z"/>
<path fill="#000000" opacity="1.000000" stroke="none" 
	d="
M223.399994,452.000000 
	C223.937820,449.559723 224.720428,449.419464 227.072754,451.628479 
	C225.933334,452.000000 224.866653,452.000000 223.399994,452.000000 
z"/>
<path fill="#00468C" opacity="1.000000" stroke="none" 
	d="
M383.003082,175.000000 
	C383.003082,156.221680 383.003082,137.943359 383.003082,119.000641 
	C385.543457,119.000641 387.487091,119.000648 389.430725,119.000641 
	C419.752045,119.000427 450.078369,118.673241 480.392670,119.134644 
	C496.114838,119.373962 511.732574,121.685661 525.960022,129.070663 
	C546.814453,139.895508 557.806946,156.859482 558.107910,180.791534 
	C558.328430,198.331787 553.266357,213.455460 540.079834,225.227173 
	C536.098328,228.781509 531.037903,231.131561 526.450684,233.999664 
	C525.403687,234.654251 524.269592,235.169525 522.926270,235.880981 
	C529.048157,238.668167 534.966553,240.760544 540.269165,243.894699 
	C553.810852,251.898697 561.748047,264.047363 564.672729,279.434326 
	C567.530884,294.471405 565.763977,309.130249 559.424561,322.951172 
	C550.539185,342.322693 534.320312,353.055206 514.493408,358.909882 
	C500.746338,362.969238 486.506653,363.776550 472.307373,363.920288 
	C444.821075,364.198547 417.329956,364.001587 389.840851,364.001587 
	C387.856964,364.001587 385.873047,364.001587 383.003082,364.001587 
	C383.003082,300.938904 383.003082,238.219452 383.003082,175.000000 
M446.569275,256.000092 
	C443.827484,256.000092 441.085724,256.000092 438.426514,256.000092 
	C438.426514,278.145020 438.426514,299.358093 438.426514,321.000000 
	C442.317169,321.000000 445.793671,321.085419 449.264740,320.983887 
	C459.374054,320.688232 469.501251,320.606842 479.584473,319.908051 
	C494.253265,318.891479 503.054504,310.138092 506.052155,292.788666 
	C508.919800,276.191895 500.778687,260.647949 484.171295,258.131073 
	C472.134186,256.306793 459.771149,256.632874 446.569275,256.000092 
M481.005920,163.121689 
	C466.828583,162.596252 452.651245,162.070816 438.385620,161.542114 
	C438.385620,181.055786 438.385620,199.271240 438.385620,217.955688 
	C451.884308,217.955688 465.143188,219.174713 478.088867,217.680344 
	C499.445190,215.215088 506.301666,198.601654 501.695068,180.533554 
	C499.079407,170.274521 491.018890,166.107422 481.005920,163.121689 
z"/>
<path fill="#00468C" opacity="1.000000" stroke="none" 
	d="
M156.678864,280.645691 
	C166.130829,255.434326 175.361313,230.557343 184.694580,205.718979 
	C194.033676,180.865173 203.579407,156.088577 212.827774,131.201279 
	C217.332260,119.079712 217.118988,119.000084 230.117554,119.000549 
	C244.778915,119.001083 259.440643,119.055542 274.101318,118.957840 
	C276.985443,118.938614 278.396790,119.769882 279.463837,122.715553 
	C295.576782,167.195770 311.850372,211.617844 328.106934,256.045990 
	C340.511322,289.946503 352.948639,323.834930 365.354370,357.734955 
	C366.015686,359.542084 366.519043,361.407074 367.333374,364.001556 
	C362.616669,364.001556 358.661621,364.001587 354.706543,364.001526 
	C340.878235,364.001404 327.046478,363.828857 313.223633,364.104095 
	C308.968475,364.188873 307.100952,362.776886 305.919220,358.743713 
	C302.073151,345.617889 297.788391,332.621216 293.812561,319.532288 
	C292.803802,316.211273 291.167786,314.889740 287.484192,314.911407 
	C259.495270,315.076019 231.504608,315.071472 203.515564,314.921082 
	C199.638885,314.900269 198.006989,316.314911 196.840591,319.895294 
	C192.396164,333.537750 187.700058,347.100769 182.857376,360.607178 
	C182.348465,362.026489 180.261292,363.828674 178.887405,363.844849 
	C161.897034,364.044952 144.903168,363.949341 127.910240,363.908447 
	C127.432602,363.907288 126.955536,363.668274 125.515297,363.281799 
	C135.876373,335.768524 146.189407,308.382782 156.678864,280.645691 
M242.500000,271.000000 
	C253.978302,271.000000 265.456604,271.000000 277.654480,271.000000 
	C267.048340,238.116043 256.616364,205.772049 245.888885,172.511841 
	C234.858734,205.687149 224.087570,238.083542 213.143494,271.000000 
	C222.880508,271.000000 232.190247,271.000000 242.500000,271.000000 
z"/>
<path fill="#00468C" opacity="1.000000" stroke="none" 
	d="
M195.000183,52.874695 
	C195.074631,54.982983 195.148865,56.616383 195.239792,58.617111 
	C212.745956,58.617111 229.971542,58.617111 247.823486,58.617111 
	C247.823486,50.630993 247.823486,42.722355 247.823486,34.424538 
	C250.332764,34.424538 252.227249,34.424538 255.210022,34.424538 
	C255.598831,42.302761 255.993973,50.309231 256.405334,58.644424 
	C259.794067,58.644424 263.022369,58.644424 267.000031,58.644424 
	C267.000031,49.717007 266.994141,40.946648 267.003387,32.176308 
	C267.006378,29.344212 266.799042,26.482309 267.132690,23.687134 
	C267.622955,19.580149 269.331177,16.652126 274.794983,18.638308 
	C274.794983,24.871437 274.794983,31.313467 274.794983,38.760975 
	C277.641754,37.141747 279.693481,35.942791 281.774292,34.796558 
	C292.151978,29.079868 305.214020,34.140850 305.043549,46.088585 
	C304.980804,50.482872 305.238617,54.899212 304.879333,59.266754 
	C304.536041,63.439915 300.194214,66.974464 295.243408,66.924782 
	C281.459839,66.786476 267.680298,66.193108 253.897018,66.102272 
	C246.616730,66.054283 239.334290,66.871811 232.048798,66.957718 
	C219.219727,67.108986 206.384247,66.830879 193.558365,67.083702 
	C188.652481,67.180397 186.986633,64.974739 187.001648,60.570782 
	C187.017563,55.905083 187.456650,51.173695 186.801422,46.601326 
	C186.476532,44.334213 184.111679,42.359432 182.669724,40.252403 
	C181.447983,42.343430 179.298859,44.380096 179.172531,46.535336 
	C178.734512,54.008369 178.902359,61.524315 179.034912,69.020485 
	C179.108917,73.205505 177.471497,75.151863 173.145035,75.037788 
	C166.983871,74.875343 160.815155,75.006935 154.649689,74.998001 
	C145.778061,74.985146 140.340317,71.121567 138.026993,63.695374 
	C135.994965,57.172180 139.437592,48.999893 145.818863,45.721661 
	C146.833862,45.200233 147.832947,44.647808 148.797485,44.132107 
	C153.535126,49.516907 153.281296,49.274853 148.464142,54.326408 
	C146.834686,56.035141 145.720169,59.690189 146.420197,61.763741 
	C147.148468,63.920952 150.214264,66.426163 152.504028,66.696762 
	C158.373230,67.390373 164.379013,66.928299 171.000870,66.928299 
	C171.000870,59.126568 171.475845,51.808697 170.854980,44.585011 
	C170.330780,38.486000 176.313370,32.446095 183.160538,32.145416 
	C189.347427,31.873739 194.781357,37.802380 194.981491,44.401939 
	C195.062271,47.065636 194.998154,49.733719 195.000183,52.874695 
M275.002502,52.813427 
	C275.090179,54.730255 275.177887,56.647087 275.285492,58.999832 
	C280.251556,58.999832 284.695740,59.001228 289.139893,58.999516 
	C296.512390,58.996681 298.854279,56.706379 297.752258,49.381790 
	C297.333710,46.599827 295.842804,42.975559 293.673828,41.662186 
	C288.610291,38.596104 276.303101,45.788601 275.002502,52.813427 
z"/>
<path fill="#00468C" opacity="1.000000" stroke="none" 
	d="
M421.237640,57.408535 
	C418.254883,47.430168 421.716187,40.739117 432.367004,36.045601 
	C433.458496,38.118942 434.575958,40.241665 435.705261,42.386887 
	C433.868225,44.017963 431.634399,45.248913 430.584686,47.137856 
	C429.459900,49.161888 428.425262,52.257046 429.220520,54.060368 
	C430.148254,56.164085 433.003387,58.578239 435.190887,58.753643 
	C442.454254,59.336044 449.793335,58.973751 458.000183,58.973751 
	C458.000183,55.218140 458.000244,51.804897 458.000183,48.391659 
	C457.999969,40.397964 457.988525,32.404251 458.002838,24.410580 
	C458.014679,17.795048 458.411804,17.481709 466.000183,18.579031 
	C466.000183,25.058678 466.000153,31.666355 466.000153,38.274033 
	C466.000153,44.908520 466.000183,51.543007 466.000183,58.585400 
	C485.671600,58.585400 504.889374,58.585400 524.496582,58.585400 
	C525.028687,50.306614 525.564514,41.969173 526.095642,33.704346 
	C532.577148,32.932434 533.969360,34.067596 533.994568,39.868031 
	C534.021118,45.994564 534.000549,52.121296 534.000549,58.619087 
	C539.412170,58.619087 544.304077,58.619087 549.822998,58.619087 
	C549.822998,50.635067 549.822998,42.730026 549.822998,34.425858 
	C552.667786,34.425858 554.900513,34.425858 557.837708,34.425858 
	C557.837708,42.922127 558.338684,51.547279 557.619995,60.069588 
	C557.276245,64.145615 553.677307,67.026962 549.071167,66.940521 
	C543.453796,66.835098 537.845337,66.177498 532.229126,66.116684 
	C528.616760,66.077576 524.999023,66.934624 521.381042,66.956238 
	C504.894623,67.054718 488.407288,66.999596 471.920288,66.999603 
	C460.360321,66.999611 448.795410,66.794510 437.242157,67.073143 
	C429.826111,67.252007 424.488525,64.596420 421.237640,57.408535 
z"/>
<path fill="#00468C" opacity="1.000000" stroke="none" 
	d="
M312.023376,41.434883 
	C315.171600,34.200348 321.155548,31.484671 327.804657,32.617294 
	C342.826233,35.176125 340.915710,47.654610 341.111328,58.680157 
	C354.203613,58.680157 366.761688,58.680157 379.940918,58.680157 
	C379.940918,50.502411 379.940918,42.597359 379.940918,34.358635 
	C382.784637,34.358635 385.016174,34.358635 387.924805,34.358635 
	C387.924805,42.920429 388.189301,51.369232 387.809937,59.789024 
	C387.628326,63.819595 383.016510,66.951050 378.381622,66.976463 
	C367.386108,67.036758 356.389557,66.949608 345.394897,67.063644 
	C343.951111,67.078613 341.515076,67.584290 341.227631,68.433998 
	C337.231232,80.248764 328.242096,81.226257 317.813904,79.570374 
	C317.942200,77.301674 318.070435,75.033745 318.204041,72.671082 
	C322.779053,70.746437 329.358002,74.394768 332.358398,67.063866 
	C324.857025,67.163338 317.298248,67.483742 313.193817,60.164715 
	C309.972107,54.419693 310.276978,48.088753 312.023376,41.434883 
M320.435730,55.824661 
	C323.864471,59.865398 328.155090,59.372200 332.972412,58.361725 
	C332.972412,54.840611 333.194611,51.520164 332.913422,48.242905 
	C332.596832,44.552444 330.790009,41.181580 326.968018,40.770542 
	C324.841248,40.541824 320.955475,42.164742 320.512512,43.711906 
	C319.495697,47.263165 320.103027,51.279427 320.435730,55.824661 
z"/>
<path fill="#00468C" opacity="1.000000" stroke="none" 
	d="
M53.528114,79.979156 
	C49.954166,79.989998 46.824303,79.989998 43.809235,79.989998 
	C42.477940,73.266563 43.410252,71.942398 49.428146,72.041573 
	C52.913963,72.099014 56.129929,72.007904 57.968910,67.341766 
	C56.064026,67.217339 54.375591,66.883728 52.731693,67.034782 
	C38.738480,68.320488 34.179405,53.647823 36.735096,44.200268 
	C39.525623,33.884590 50.096733,28.803114 59.536209,34.791126 
	C63.519020,37.317657 65.834305,40.655930 65.944542,45.247173 
	C66.124130,52.727001 66.096123,60.216133 65.961960,67.697868 
	C65.845032,74.218170 62.372307,77.640007 53.528114,79.979156 
M48.673920,41.129887 
	C43.892780,45.386292 42.314346,50.967731 45.508095,55.586155 
	C48.396290,59.762730 53.055523,59.373543 57.994167,58.443813 
	C57.994167,54.593498 58.073521,50.967892 57.974796,47.347137 
	C57.840599,42.425369 54.822899,40.211819 48.673920,41.129887 
z"/>
<path fill="#00468C" opacity="1.000000" stroke="none" 
	d="
M87.943405,67.000015 
	C82.507622,67.000008 77.561073,67.000008 72.320663,67.000008 
	C72.320663,64.144615 72.320663,61.914669 72.320663,58.999454 
	C77.988739,58.999454 83.425957,59.003605 88.863159,58.998474 
	C96.992973,58.990799 96.996437,58.988026 96.998894,51.110600 
	C97.002266,40.331043 96.999733,29.551489 96.999733,18.395210 
	C99.752617,18.395210 101.978912,18.395210 104.999664,18.395210 
	C104.999664,23.353531 104.999687,28.283340 104.999672,33.213150 
	C104.999641,40.201225 105.005493,47.189312 104.998062,54.177380 
	C104.988441,63.221550 101.304596,66.974037 92.425819,66.999184 
	C91.094772,67.002960 89.763702,66.999908 87.943405,67.000015 
z"/>
<path fill="#00468C" opacity="1.000000" stroke="none" 
	d="
M118.855629,19.441805 
	C118.934280,35.349018 118.934280,50.798382 118.934280,66.615204 
	C116.245049,66.615204 114.014313,66.615204 111.389488,66.615204 
	C111.389488,50.657570 111.389488,34.764149 111.389488,17.881094 
	C113.937714,18.261513 116.357346,18.622734 118.855629,19.441805 
z"/>
<path fill="#00468C" opacity="1.000000" stroke="none" 
	d="
M400.946106,64.599228 
	C398.597687,65.892593 396.278778,66.727135 393.327271,67.789330 
	C393.327271,50.486862 393.327271,34.584595 393.327271,18.730864 
	C400.216400,17.264874 400.987854,17.810675 400.993378,24.146805 
	C401.005005,37.477989 400.983521,50.809204 400.946106,64.599228 
z"/>
<path fill="#00468C" opacity="1.000000" stroke="none" 
	d="
M81.011673,44.977646 
	C81.017822,37.549961 81.017822,30.617504 81.017822,23.353233 
	C83.812096,23.353233 86.036888,23.353233 88.632736,23.353233 
	C88.632736,34.368263 88.632736,45.239483 88.632736,56.551826 
	C86.386772,56.551826 84.168427,56.551826 81.005516,56.551826 
	C81.005516,52.930847 81.005516,49.201862 81.011673,44.977646 
z"/>
<path fill="#00488C" opacity="1.000000" stroke="none" 
	d="
M82.527176,8.432741 
	C86.991295,5.912512 90.375069,6.571379 93.030418,11.091889 
	C91.987328,12.270987 90.925201,13.471595 89.719025,14.835040 
	C88.557053,13.868317 87.571869,13.048676 86.320358,12.007456 
	C85.920891,13.158833 85.542206,14.250319 85.145416,15.393967 
	C88.130440,16.984274 93.778709,13.852426 93.024414,20.705399 
	C88.273827,20.705399 83.401115,20.705399 77.614082,20.705399 
	C79.272354,16.390547 80.750671,12.543941 82.527176,8.432741 
z"/>
<path fill="#00468C" opacity="1.000000" stroke="none" 
	d="
M447.644653,35.848503 
	C446.470093,36.454281 445.654999,37.141666 444.659729,37.981014 
	C447.820648,40.084618 453.597229,36.883575 452.574585,43.736473 
	C447.809875,43.736473 443.215240,43.736473 437.379242,43.736473 
	C439.261902,39.236031 440.225983,34.802269 442.713654,31.525055 
	C445.804108,27.453821 451.194885,30.179558 452.746857,36.599083 
	C451.077850,36.363663 449.540985,36.146889 447.644653,35.848503 
z"/>
<path fill="#00468C" opacity="1.000000" stroke="none" 
	d="
M395.298462,408.412964 
	C394.407562,404.122559 395.566040,401.266602 399.912659,401.139740 
	C403.293030,401.041046 405.128937,403.313507 404.863373,406.594391 
	C404.750702,407.985931 403.374756,410.409393 402.593842,410.401093 
	C400.207825,410.375702 397.831970,409.397064 395.298462,408.412964 
z"/>
<path fill="#00468C" opacity="1.000000" stroke="none" 
	d="
M35.020523,410.982086 
	C30.731222,410.889160 29.564093,407.974365 30.355301,405.243652 
	C30.864702,403.485535 33.581219,401.687103 35.579784,401.297241 
	C36.763309,401.066376 39.345886,403.303802 39.766842,404.848877 
	C40.636356,408.040344 39.549084,410.830505 35.020523,410.982086 
z"/>
<path fill="#00488C" opacity="1.000000" stroke="none" 
	d="
M152.183670,86.593796 
	C152.087524,84.367722 152.087524,82.566322 152.087524,79.510666 
	C155.032730,80.267563 157.644531,80.451515 159.555878,81.704216 
	C160.192505,82.121452 159.625977,86.336777 158.557922,86.933388 
	C156.950867,87.831116 154.418686,87.072762 152.183670,86.593796 
z"/>
<path fill="#00468C" opacity="1.000000" stroke="none" 
	d="
M162.593033,80.631989 
	C164.980408,80.219093 167.069901,80.120255 169.571762,80.001915 
	C169.226562,82.766579 168.939682,85.064278 168.615662,87.659271 
	C166.551376,87.659271 164.667862,87.659271 162.295151,87.659271 
	C162.295151,85.370079 162.295151,83.158066 162.593033,80.631989 
z"/>
<path fill="#00468C" opacity="1.000000" stroke="none" 
	d="
M546.206177,77.666931 
	C546.097717,75.765663 546.097717,74.289963 546.097717,72.412636 
	C548.625549,72.412636 550.863037,72.412636 553.544189,72.412636 
	C553.544189,74.356003 553.544189,76.372475 553.544189,79.193214 
	C550.968079,78.800995 548.641296,78.446747 546.206177,77.666931 
z"/>
<path fill="#00468C" opacity="1.000000" stroke="none" 
	d="
M289.809448,27.936451 
	C282.469360,28.416447 285.639526,23.698317 285.205475,20.320358 
	C287.506561,20.320358 289.408478,20.320358 292.603302,20.320358 
	C291.713257,23.183464 290.979553,25.543686 289.809448,27.936451 
z"/>
<path fill="#00468C" opacity="1.000000" stroke="none" 
	d="
M526.606812,20.626247 
	C528.699280,20.312281 530.486023,20.312281 532.630737,20.312281 
	C532.630737,22.717754 532.630737,24.954826 532.630737,27.587965 
	C530.672913,27.587965 528.770081,27.587965 526.301147,27.587965 
	C526.301147,25.418459 526.301147,23.179337 526.606812,20.626247 
z"/>
<path fill="#00468C" opacity="1.000000" stroke="none" 
	d="
M249.341644,78.801773 
	C248.564697,76.709946 248.208481,74.722099 247.778778,72.324142 
	C250.492050,72.324142 252.396957,72.324142 254.642120,72.324142 
	C254.642120,74.422089 254.642120,76.325562 254.642120,78.905754 
	C252.952713,78.905754 251.357559,78.905754 249.341644,78.801773 
z"/>
<path fill="#00468C" opacity="1.000000" stroke="none" 
	d="
M382.396057,72.619118 
	C382.701141,74.717918 382.701141,76.504623 382.701141,78.634857 
	C380.594208,78.634857 378.688599,78.634857 376.399658,78.634857 
	C376.399658,76.659393 376.399658,74.753975 376.399658,72.307014 
	C378.274536,72.307014 380.182770,72.307014 382.396057,72.619118 
z"/>
<path fill="#000000" opacity="1.000000" stroke="none" 
	d="
M441.706726,431.006439 
	C443.552399,431.399811 445.352539,431.382141 446.292114,432.272552 
	C447.816132,433.716888 449.723236,435.764709 449.707977,437.542694 
	C449.692688,439.327148 447.890564,441.973999 446.216858,442.671112 
	C443.346954,443.866394 439.967468,443.838135 436.345276,444.393616 
	C436.345276,439.552032 436.345276,435.656799 436.345276,431.326874 
	C438.075256,431.213257 439.675018,431.108185 441.706726,431.006439 
z"/>
<path fill="#000000" opacity="1.000000" stroke="none" 
	d="
M436.000610,418.096008 
	C436.122803,416.200836 436.244293,414.763092 436.410034,412.801605 
	C439.928650,413.294617 443.106842,413.364136 445.994476,414.315460 
	C447.286133,414.740967 448.841644,416.985291 448.764008,418.315887 
	C448.655365,420.178345 447.546539,422.987457 446.128235,423.557831 
	C443.242889,424.718140 439.863922,424.650848 435.999939,425.184479 
	C435.999939,422.448059 435.999939,420.500732 436.000610,418.096008 
z"/>
<path fill="#000000" opacity="1.000000" stroke="none" 
	d="
M276.521027,441.746521 
	C272.419250,442.775238 268.668793,443.624725 264.354309,444.601959 
	C264.354309,433.617401 264.354309,423.731293 264.354309,413.862610 
	C270.785461,412.105286 278.435089,414.711761 280.731964,419.651642 
	C284.328949,427.387543 282.914307,437.283325 276.521027,441.746521 
z"/>
<path fill="#000000" opacity="1.000000" stroke="none" 
	d="
M188.432526,443.721375 
	C180.783844,446.060486 180.012512,445.504700 180.001175,438.047333 
	C179.995865,434.558655 179.831131,431.057770 180.079926,427.586884 
	C180.191528,426.029877 180.869156,423.448761 181.764343,423.224274 
	C183.928009,422.681763 186.813828,422.479248 188.619736,423.514954 
	C194.611267,426.951324 194.524017,437.108459 188.432526,443.721375 
z"/>
<path fill="#000000" opacity="1.000000" stroke="none" 
	d="
M370.000000,435.950317 
	C370.000610,432.817169 369.800385,430.150269 370.077728,427.534027 
	C370.242249,425.981964 370.893066,423.438751 371.791840,423.214935 
	C373.946228,422.678467 376.715454,422.566986 378.624023,423.515869 
	C382.508972,425.447418 384.277863,432.823944 382.641144,437.728882 
	C380.734833,443.441803 377.532379,445.313690 370.000000,444.554413 
	C370.000000,441.912720 370.000000,439.175293 370.000000,435.950317 
z"/>
<path fill="#000000" opacity="1.000000" stroke="none" 
	d="
M150.654327,424.358704 
	C151.602844,427.376953 152.376129,430.044647 153.110474,432.723083 
	C153.183990,432.991211 153.021011,433.324188 152.937531,433.799194 
	C149.518524,433.799194 146.080551,433.799194 141.938995,433.799194 
	C143.874573,428.133301 145.673538,422.867310 147.472519,417.601318 
	C147.879898,417.642029 148.287292,417.682709 148.694672,417.723419 
	C149.285828,419.819336 149.876984,421.915283 150.654327,424.358704 
z"/>
<path fill="#000000" opacity="1.000000" stroke="none" 
	d="
M472.880920,444.404053 
	C471.940277,442.420502 470.277222,439.976715 470.900330,439.016388 
	C473.155731,435.540405 476.844147,435.509094 480.548645,436.451172 
	C480.757690,443.882324 479.510773,445.231873 472.880920,444.404053 
z"/>
<path fill="#000000" opacity="1.000000" stroke="none" 
	d="
M342.433472,436.084320 
	C346.149384,435.494019 347.199341,436.944061 347.049927,440.177643 
	C346.872162,444.024261 344.283234,445.199402 341.454559,444.755920 
	C339.809784,444.498077 338.499237,442.108093 337.038330,440.677460 
	C338.698792,439.160675 340.359253,437.643890 342.433472,436.084320 
z"/>
<path fill="#000000" opacity="1.000000" stroke="none" 
	d="
M447.061371,256.000061 
	C459.771149,256.632874 472.134186,256.306793 484.171295,258.131073 
	C500.778687,260.647949 508.919800,276.191895 506.052155,292.788666 
	C503.054504,310.138092 494.253265,318.891479 479.584473,319.908051 
	C469.501251,320.606842 459.374054,320.688232 449.264740,320.983887 
	C445.793671,321.085419 442.317169,321.000000 438.426514,321.000000 
	C438.426514,299.358093 438.426514,278.145020 438.426514,256.000092 
	C441.085724,256.000092 443.827484,256.000092 447.061371,256.000061 
z"/>
<path fill="#000000" opacity="1.000000" stroke="none" 
	d="
M481.404663,163.255249 
	C491.018890,166.107422 499.079407,170.274521 501.695068,180.533554 
	C506.301666,198.601654 499.445190,215.215088 478.088867,217.680344 
	C465.143188,219.174713 451.884308,217.955688 438.385620,217.955688 
	C438.385620,199.271240 438.385620,181.055786 438.385620,161.542114 
	C452.651245,162.070816 466.828583,162.596252 481.404663,163.255249 
z"/>
<path fill="#000000" opacity="1.000000" stroke="none" 
	d="
M242.000000,271.000000 
	C232.190247,271.000000 222.880508,271.000000 213.143494,271.000000 
	C224.087570,238.083542 234.858734,205.687149 245.888885,172.511841 
	C256.616364,205.772049 267.048340,238.116043 277.654480,271.000000 
	C265.456604,271.000000 253.978302,271.000000 242.000000,271.000000 
z"/>
<path fill="#000000" opacity="1.000000" stroke="none" 
	d="
M275.005432,52.381340 
	C276.303101,45.788601 288.610291,38.596104 293.673828,41.662186 
	C295.842804,42.975559 297.333710,46.599827 297.752258,49.381790 
	C298.854279,56.706379 296.512390,58.996681 289.139893,58.999516 
	C284.695740,59.001228 280.251556,58.999832 275.285492,58.999832 
	C275.177887,56.647087 275.090179,54.730255 275.005432,52.381340 
z"/>
<path fill="#000000" opacity="1.000000" stroke="none" 
	d="
M320.243378,55.465790 
	C320.103027,51.279427 319.495697,47.263165 320.512512,43.711906 
	C320.955475,42.164742 324.841248,40.541824 326.968018,40.770542 
	C330.790009,41.181580 332.596832,44.552444 332.913422,48.242905 
	C333.194611,51.520164 332.972412,54.840611 332.972412,58.361725 
	C328.155090,59.372200 323.864471,59.865398 320.243378,55.465790 
z"/>
<path fill="#000000" opacity="1.000000" stroke="none" 
	d="
M49.027527,41.014690 
	C54.822899,40.211819 57.840599,42.425369 57.974796,47.347137 
	C58.073521,50.967892 57.994167,54.593498 57.994167,58.443813 
	C53.055523,59.373543 48.396290,59.762730 45.508095,55.586155 
	C42.314346,50.967731 43.892780,45.386292 49.027527,41.014690 
z"/>
</svg>