<svg version="1.1" id="Layer_1" xmlns="http://www.w3.org/2000/svg" xmlns:xlink="http://www.w3.org/1999/xlink" x="0px" y="0px"
	 width="100%" viewBox="0 0 2000 1017" enable-background="new 0 0 2000 1017" xml:space="preserve">
<path fill="#47704C" opacity="1.000000" stroke="none" 
	d="
M1.000000,691.000000 
	C1.000000,461.041199 1.000000,231.082397 1.000000,1.000000 
	C557.692505,1.000000 1114.385010,1.000000 1671.328369,1.324789 
	C1670.181396,2.095248 1668.813110,2.746318 1667.380981,2.952460 
	C1659.545288,4.080214 1651.615356,4.699853 1643.862305,6.227433 
	C1617.612549,11.399446 1591.903076,18.490040 1566.797241,27.872026 
	C1531.189331,41.178802 1497.458984,58.112778 1465.549438,78.732941 
	C1447.212524,90.582390 1429.254150,102.984741 1413.486572,118.156616 
	C1402.588867,128.642685 1391.882202,139.404724 1381.938965,150.785110 
	C1370.105713,164.328461 1358.679321,178.293488 1347.967896,192.736816 
	C1325.993042,222.367966 1308.532715,254.615845 1296.442261,289.473755 
	C1285.177246,321.952148 1278.576660,355.282379 1280.822266,390.058899 
	C1281.872681,406.329376 1284.337524,422.178101 1289.046143,437.728485 
	C1296.151611,461.195190 1307.549927,482.367371 1324.682495,499.922119 
	C1335.679199,511.189758 1349.073486,519.647095 1363.022583,526.968811 
	C1397.743896,545.193542 1435.372559,551.611694 1473.978516,552.793701 
	C1491.845337,553.340637 1509.784790,551.790833 1527.681519,550.975464 
	C1537.595337,550.523743 1547.675659,550.589539 1557.350098,548.714417 
	C1573.993530,545.488586 1590.594604,541.649048 1606.827271,536.779785 
	C1642.393921,526.110779 1676.281128,511.409637 1708.268799,492.392242 
	C1730.042236,479.447388 1750.706299,464.922668 1769.836182,448.402557 
	C1782.226562,437.702423 1794.191284,426.319366 1805.070190,414.105194 
	C1819.996948,397.346344 1834.487915,380.078339 1847.764648,361.999695 
	C1866.799194,336.080566 1881.843994,307.696106 1894.878784,278.302704 
	C1906.687744,251.674026 1912.160889,223.530838 1912.812622,194.595917 
	C1913.202881,177.265411 1910.938232,160.022095 1907.107056,142.995209 
	C1901.873779,119.737045 1893.731323,97.641190 1880.890625,77.576645 
	C1869.645752,60.005516 1853.463623,47.234524 1836.363159,35.761295 
	C1812.714966,19.895187 1786.531738,10.212579 1758.616333,4.981698 
	C1752.381104,3.813337 1746.203857,2.335397 1740.000000,0.999992 
	C1826.961304,1.000000 1913.922729,1.000000 2001.000000,1.000000 
	C2001.000000,230.692490 2001.000000,460.385010 2000.531372,690.538757 
	C1966.830444,691.000000 1933.598267,691.000000 1900.000000,691.000000 
	C1900.000000,694.271545 1900.000000,696.590393 1900.000000,698.909180 
	C1900.000000,762.393494 1900.026367,825.877747 1899.955322,889.362000 
	C1899.948853,895.144409 1899.763794,900.995239 1898.880005,906.693054 
	C1897.279175,917.014526 1892.835938,925.748962 1883.674072,931.725342 
	C1872.971069,938.707092 1860.866089,940.511658 1848.671509,940.845703 
	C1828.191895,941.406738 1807.683228,941.186218 1787.192139,940.907349 
	C1779.119995,940.797546 1770.963745,940.211853 1763.022827,938.827881 
	C1753.533691,937.174072 1744.352539,934.202148 1737.894409,925.742676 
	C1730.779907,909.876099 1730.971313,893.374573 1730.983521,876.870178 
	C1731.025879,819.255188 1731.007080,761.640137 1730.978760,704.025146 
	C1730.977295,701.038818 1731.009888,697.986084 1730.437256,695.080444 
	C1729.313599,689.379395 1726.487671,687.062256 1720.748657,687.050842 
	C1691.108765,686.991882 1661.468628,687.019958 1631.828613,687.038330 
	C1630.671021,687.039062 1629.193970,686.849976 1628.433105,687.458618 
	C1627.375488,688.304504 1626.854858,689.821655 1626.068848,691.515747 
	C1626.022217,740.808411 1625.995239,789.636780 1626.005493,838.465210 
	C1626.012329,870.960938 1626.072266,903.456604 1626.040283,936.186035 
	C1626.259155,937.279175 1626.546265,938.138672 1626.889893,939.420593 
	C1627.000488,941.546082 1627.054565,943.249207 1627.040283,945.186035 
	C1627.259277,946.279175 1627.546387,947.138672 1627.895264,948.321533 
	C1628.007446,949.080627 1628.057983,949.516479 1628.011841,950.281372 
	C1628.490356,962.162048 1632.714355,972.391541 1639.392700,981.663635 
	C1640.174805,982.749573 1641.840576,983.199158 1643.068115,983.952148 
	C1643.039551,983.960388 1643.057251,983.903748 1643.119141,984.250183 
	C1644.398560,986.064453 1645.615967,987.532227 1646.996948,989.289917 
	C1648.787598,991.014771 1650.414673,992.449768 1652.137939,994.225586 
	C1653.854004,995.690979 1655.474121,996.815491 1657.065674,997.948853 
	C1657.037231,997.957581 1657.056274,997.901245 1657.138916,998.244934 
	C1658.970215,1000.492737 1660.456543,1002.769348 1662.522461,1004.222473 
	C1666.667480,1007.138245 1671.129028,1009.604187 1675.459961,1012.255737 
	C1672.945923,1013.614197 1670.580933,1013.972412 1668.215698,1013.974182 
	C1623.282593,1014.007446 1578.349609,1014.004395 1533.416504,1013.993958 
	C1524.471191,1013.991882 1524.017700,1013.544556 1524.006714,1004.786621 
	C1523.984009,986.646973 1524.015869,968.507324 1523.962524,950.367798 
	C1523.952881,947.074768 1524.274414,943.495239 1520.092529,941.764221 
	C1520.018311,941.528931 1519.895264,941.051147 1519.932861,940.763611 
	C1518.612305,939.357605 1517.409546,937.706238 1515.857422,937.253479 
	C1513.850830,936.668213 1511.565186,937.005432 1509.399658,937.005249 
	C1430.406860,936.998962 1351.414062,937.005188 1272.421265,936.975403 
	C1269.773682,936.974426 1267.126343,936.621033 1264.478882,936.431885 
	C1264.386963,935.897034 1264.295166,935.362122 1264.203247,934.827209 
	C1265.607666,933.820251 1266.921265,932.643433 1268.432007,931.835266 
	C1275.629639,927.984863 1282.842651,924.159424 1290.119507,920.461304 
	C1334.682739,897.813477 1379.244995,875.163696 1423.849121,852.596619 
	C1444.804932,841.994202 1465.681274,831.211548 1486.898682,821.154297 
	C1521.753906,804.632874 1536.468872,760.510803 1514.173096,722.979065 
	C1512.990967,720.989014 1510.674561,719.672729 1508.592163,717.882507 
	C1500.622681,708.715698 1491.128052,702.625671 1479.883423,698.794800 
	C1462.897461,693.007812 1445.226318,691.286011 1427.645264,691.202698 
	C1336.174683,690.769104 1244.700806,690.999084 1153.228149,691.011658 
	C1151.491455,691.011902 1149.754639,691.180237 1148.000000,691.271118 
	C1148.000000,707.735535 1148.098022,723.564514 1147.960938,739.391357 
	C1147.886353,748.007507 1147.291748,756.619629 1147.253662,765.234985 
	C1147.248169,766.470337 1148.822021,768.232727 1150.093384,768.813354 
	C1151.477661,769.445496 1153.361328,768.997925 1155.027222,768.997986 
	C1235.003418,769.000305 1314.979492,768.995483 1394.955688,769.024780 
	C1397.080811,769.025574 1399.205688,769.392273 1401.330688,769.588257 
	C1401.391968,770.044800 1401.453247,770.501343 1401.514648,770.957886 
	C1400.136841,771.722534 1398.779053,772.525879 1397.378296,773.245850 
	C1382.061890,781.118225 1366.747803,788.995483 1351.415405,796.836548 
	C1321.342163,812.216187 1291.277954,827.613770 1261.171509,842.928284 
	C1235.190308,856.144470 1209.123901,869.193054 1183.162598,882.448120 
	C1174.264771,886.990967 1165.412354,891.138000 1158.093994,898.795288 
	C1150.480835,906.760986 1145.168335,915.582642 1142.198730,925.681274 
	C1137.915527,940.245789 1137.422119,955.253906 1140.110596,970.292908 
	C1144.015991,992.139648 1155.693848,1007.534668 1176.950439,1015.144043 
	C1178.448975,1015.680603 1179.656860,1017.029053 1181.000000,1018.000000 
	C1110.307495,1018.000000 1039.614990,1018.000000 968.499146,1017.617065 
	C970.650208,1016.161560 973.133240,1014.671570 975.813904,1014.085205 
	C991.612915,1010.629456 1006.418091,1005.071594 1018.518250,993.930542 
	C1036.376221,977.488037 1044.586670,956.242493 1044.768433,932.738037 
	C1045.376465,854.086487 1045.001099,775.427246 1044.986328,696.770996 
	C1044.985962,695.003967 1044.795044,693.236938 1044.689453,691.408325 
	C1010.951965,691.408325 977.732666,691.408325 944.000061,691.408325 
	C944.000061,694.111755 944.009949,696.411377 943.998596,698.710938 
	C943.666992,766.154907 943.489319,833.600342 942.884827,901.041870 
	C942.742554,916.912659 935.436279,929.433899 920.132996,935.100403 
	C911.458252,938.312500 901.940369,940.378967 892.714783,940.742188 
	C871.916443,941.561218 851.061340,941.183899 830.234436,940.907288 
	C822.160828,940.800049 813.995422,940.243164 806.060486,938.831299 
	C795.154602,936.890869 785.139160,932.765930 778.490967,923.020630 
	C773.173096,915.225464 771.081360,906.425415 771.064697,897.249390 
	C770.944580,830.925049 771.000061,764.600342 770.999878,698.275757 
	C770.999878,696.016235 770.999878,693.756714 770.999878,691.406494 
	C736.622314,691.406494 703.069641,691.406494 669.000061,691.406494 
	C669.000061,694.107544 669.000061,696.406677 669.000061,698.705811 
	C669.000000,770.363037 668.858398,842.020752 669.135315,913.676880 
	C669.183044,926.030762 670.130798,938.527893 672.212708,950.693604 
	C675.547363,970.180542 685.410217,986.225342 701.550049,998.000122 
	C715.472778,1008.157471 731.406250,1013.274536 748.223633,1016.075623 
	C749.228027,1016.242981 750.078125,1017.337097 751.000000,1018.000000 
	C682.307495,1018.000000 613.614990,1018.000000 544.495117,1017.630859 
	C545.621887,1016.225281 547.041138,1014.786133 548.750732,1014.213501 
	C571.961060,1006.438110 586.568909,990.072144 595.102173,967.757202 
	C601.000854,952.331787 600.197998,936.520874 596.345886,920.867554 
	C592.537415,905.391235 585.674377,891.157349 571.698792,882.606262 
	C562.253906,876.827148 551.520630,873.002441 541.093262,869.009583 
	C513.198120,858.328064 485.145813,848.057861 457.177460,837.566895 
	C423.028168,824.757385 388.898590,811.895325 354.765106,799.043762 
	C342.410034,794.392029 330.040833,789.775635 317.732147,785.003662 
	C311.386261,782.543335 309.944489,776.888611 315.106018,772.736816 
	C317.890381,770.497070 322.221100,769.160156 325.858643,769.150879 
	C403.523468,768.952271 481.188904,769.002686 558.854248,768.986694 
	C561.109436,768.986206 563.364624,768.790588 565.542969,768.689514 
	C565.542969,742.525146 565.542969,716.969177 565.542969,691.000061 
	C562.775696,691.000061 560.463135,691.000061 558.150513,691.000061 
	C480.318512,691.000061 402.486481,690.968933 324.654541,691.043274 
	C315.868073,691.051636 307.076172,691.541565 298.297241,692.005798 
	C277.690918,693.095642 258.170746,698.312988 240.179581,708.471741 
	C225.515625,716.751831 213.957230,728.036133 208.295166,744.423218 
	C202.665527,760.716553 201.413986,777.439209 204.034363,794.379211 
	C207.586777,817.344421 219.752563,834.532959 241.272781,843.386780 
	C264.911713,853.112366 289.193726,861.274048 313.190277,870.131409 
	C360.412842,887.561829 407.645752,904.964417 454.834381,922.486450 
	C460.682495,924.657959 466.487305,927.121948 471.939819,930.126221 
	C476.145447,932.443420 476.112610,936.815063 472.007019,939.188110 
	C469.742889,940.496887 466.690338,940.926758 463.992371,940.929382 
	C376.827271,941.014954 289.662079,941.000061 202.496918,941.000122 
	C200.216385,941.000122 197.935852,941.000061 195.000000,941.000061 
	C195.000000,967.108337 195.000000,992.554138 195.000000,1018.000000 
	C164.307495,1018.000000 133.615005,1018.000000 102.461258,1017.531372 
	C102.000000,908.572266 102.000000,800.081848 102.000000,691.000000 
	C67.842705,691.000000 34.421352,691.000000 1.000000,691.000000 
z"/>
<path fill="#000000" opacity="1.000000" stroke="none" 
	d="
M195.468658,1018.000000 
	C195.000000,992.554138 195.000000,967.108337 195.000000,941.000061 
	C197.935852,941.000061 200.216385,941.000122 202.496918,941.000122 
	C289.662079,941.000061 376.827271,941.014954 463.992371,940.929382 
	C466.690338,940.926758 469.742889,940.496887 472.007019,939.188110 
	C476.112610,936.815063 476.145447,932.443420 471.939819,930.126221 
	C466.487305,927.121948 460.682495,924.657959 454.834381,922.486450 
	C407.645752,904.964417 360.412842,887.561829 313.190277,870.131409 
	C289.193726,861.274048 264.911713,853.112366 241.272781,843.386780 
	C219.752563,834.532959 207.586777,817.344421 204.034363,794.379211 
	C201.413986,777.439209 202.665527,760.716553 208.295166,744.423218 
	C213.957230,728.036133 225.515625,716.751831 240.179581,708.471741 
	C258.170746,698.312988 277.690918,693.095642 298.297241,692.005798 
	C307.076172,691.541565 315.868073,691.051636 324.654541,691.043274 
	C402.486481,690.968933 480.318512,691.000061 558.150513,691.000061 
	C560.463135,691.000061 562.775696,691.000061 565.542969,691.000061 
	C565.542969,716.969177 565.542969,742.525146 565.542969,768.689514 
	C563.364624,768.790588 561.109436,768.986206 558.854248,768.986694 
	C481.188904,769.002686 403.523468,768.952271 325.858643,769.150879 
	C322.221100,769.160156 317.890381,770.497070 315.106018,772.736816 
	C309.944489,776.888611 311.386261,782.543335 317.732147,785.003662 
	C330.040833,789.775635 342.410034,794.392029 354.765106,799.043762 
	C388.898590,811.895325 423.028168,824.757385 457.177460,837.566895 
	C485.145813,848.057861 513.198120,858.328064 541.093262,869.009583 
	C551.520630,873.002441 562.253906,876.827148 571.698792,882.606262 
	C585.674377,891.157349 592.537415,905.391235 596.345886,920.867554 
	C600.197998,936.520874 601.000854,952.331787 595.102173,967.757202 
	C586.568909,990.072144 571.961060,1006.438110 548.750732,1014.213501 
	C547.041138,1014.786133 545.621887,1016.225281 544.033813,1017.630859 
	C427.979095,1018.000000 311.958221,1018.000000 195.468658,1018.000000 
z"/>
<path fill="#000000" opacity="1.000000" stroke="none" 
	d="
M1519.895264,941.051147 
	C1519.895264,941.051147 1520.018311,941.528931 1520.035889,942.229980 
	C1520.091187,967.629395 1520.128906,992.327759 1520.107666,1017.266602 
	C1520.048706,1017.507141 1520.000000,1018.000000 1520.000000,1018.000000 
	C1407.312378,1018.000000 1294.624878,1018.000000 1181.468628,1018.000000 
	C1179.656860,1017.029053 1178.448975,1015.680603 1176.950439,1015.144043 
	C1155.693848,1007.534668 1144.015991,992.139648 1140.110596,970.292908 
	C1137.422119,955.253906 1137.915527,940.245789 1142.198730,925.681274 
	C1145.168335,915.582642 1150.480835,906.760986 1158.093994,898.795288 
	C1165.412354,891.138000 1174.264771,886.990967 1183.162598,882.448120 
	C1209.123901,869.193054 1235.190308,856.144470 1261.171509,842.928284 
	C1291.277954,827.613770 1321.342163,812.216187 1351.415405,796.836548 
	C1366.747803,788.995483 1382.061890,781.118225 1397.378296,773.245850 
	C1398.779053,772.525879 1400.136841,771.722534 1401.514648,770.957886 
	C1401.453247,770.501343 1401.391968,770.044800 1401.330688,769.588257 
	C1399.205688,769.392273 1397.080811,769.025574 1394.955688,769.024780 
	C1314.979492,768.995483 1235.003418,769.000305 1155.027222,768.997986 
	C1153.361328,768.997925 1151.477661,769.445496 1150.093384,768.813354 
	C1148.822021,768.232727 1147.248169,766.470337 1147.253662,765.234985 
	C1147.291748,756.619629 1147.886353,748.007507 1147.960938,739.391357 
	C1148.098022,723.564514 1148.000000,707.735535 1148.000000,691.271118 
	C1149.754639,691.180237 1151.491455,691.011902 1153.228149,691.011658 
	C1244.700806,690.999084 1336.174683,690.769104 1427.645264,691.202698 
	C1445.226318,691.286011 1462.897461,693.007812 1479.883423,698.794800 
	C1491.128052,702.625671 1500.622681,708.715698 1508.753662,718.193481 
	C1511.143066,722.300171 1513.393921,725.805298 1514.952515,729.595093 
	C1519.930786,741.699463 1522.033325,754.145874 1520.100952,767.344971 
	C1517.556152,784.727905 1510.023682,799.315491 1496.034302,809.739563 
	C1488.586426,815.289307 1479.714478,818.971130 1471.362183,823.256042 
	C1438.498413,840.115906 1405.600952,856.910339 1372.686401,873.670837 
	C1348.180786,886.149536 1323.618530,898.516846 1299.103394,910.977051 
	C1286.999023,917.129333 1274.913452,923.320557 1262.888428,929.625793 
	C1259.822266,931.233459 1256.250244,933.195435 1257.193848,937.395020 
	C1258.153442,941.665955 1262.150635,940.932495 1265.409058,940.995056 
	C1266.741821,941.020630 1268.075439,940.999756 1269.408691,941.000061 
	C1352.904175,941.017090 1436.399780,941.034058 1519.895264,941.051147 
z"/>
<path fill="#000000" opacity="1.000000" stroke="none" 
	d="
M751.468628,1018.000000 
	C750.078125,1017.337097 749.228027,1016.242981 748.223633,1016.075623 
	C731.406250,1013.274536 715.472778,1008.157471 701.550049,998.000122 
	C685.410217,986.225342 675.547363,970.180542 672.212708,950.693604 
	C670.130798,938.527893 669.183044,926.030762 669.135315,913.676880 
	C668.858398,842.020752 669.000000,770.363037 669.000061,698.705811 
	C669.000061,696.406677 669.000061,694.107544 669.000061,691.406494 
	C703.069641,691.406494 736.622314,691.406494 770.999878,691.406494 
	C770.999878,693.756714 770.999878,696.016235 770.999878,698.275757 
	C771.000061,764.600342 770.944580,830.925049 771.064697,897.249390 
	C771.081360,906.425415 773.173096,915.225464 778.490967,923.020630 
	C785.139160,932.765930 795.154602,936.890869 806.060486,938.831299 
	C813.995422,940.243164 822.160828,940.800049 830.234436,940.907288 
	C851.061340,941.183899 871.916443,941.561218 892.714783,940.742188 
	C901.940369,940.378967 911.458252,938.312500 920.132996,935.100403 
	C935.436279,929.433899 942.742554,916.912659 942.884827,901.041870 
	C943.489319,833.600342 943.666992,766.154907 943.998596,698.710938 
	C944.009949,696.411377 944.000061,694.111755 944.000061,691.408325 
	C977.732666,691.408325 1010.951965,691.408325 1044.689453,691.408325 
	C1044.795044,693.236938 1044.985962,695.003967 1044.986328,696.770996 
	C1045.001099,775.427246 1045.376465,854.086487 1044.768433,932.738037 
	C1044.586670,956.242493 1036.376221,977.488037 1018.518250,993.930542 
	C1006.418091,1005.071594 991.612915,1010.629456 975.813904,1014.085205 
	C973.133240,1014.671570 970.650208,1016.161560 968.037964,1017.617065 
	C895.979126,1018.000000 823.958191,1018.000000 751.468628,1018.000000 
z"/>
<path fill="#000000" opacity="1.000000" stroke="none" 
	d="
M1628.108521,949.952332 
	C1628.057983,949.516479 1628.007446,949.080627 1627.946289,947.989563 
	C1627.660034,946.540344 1627.384277,945.746338 1627.108521,944.952332 
	C1627.054565,943.249207 1627.000488,941.546082 1626.941162,939.088623 
	C1626.659912,937.540344 1626.384277,936.746338 1626.108521,935.952332 
	C1626.072266,903.456604 1626.012329,870.960938 1626.005493,838.465210 
	C1625.995239,789.636780 1626.022217,740.808411 1626.530640,691.498169 
	C1660.229248,691.016418 1693.430786,691.016418 1727.000000,691.016418 
	C1727.000000,694.266052 1726.990112,696.583252 1727.001465,698.900330 
	C1727.333008,765.940918 1727.549194,832.982483 1728.132202,900.020874 
	C1728.215454,909.597534 1730.225342,919.101562 1737.958008,926.114929 
	C1744.352539,934.202148 1753.533691,937.174072 1763.022827,938.827881 
	C1770.963745,940.211853 1779.119995,940.797546 1787.192139,940.907349 
	C1807.683228,941.186218 1828.191895,941.406738 1848.671509,940.845703 
	C1860.866089,940.511658 1872.971069,938.707092 1883.674072,931.725342 
	C1892.835938,925.748962 1897.279175,917.014526 1898.880005,906.693054 
	C1899.763794,900.995239 1899.948853,895.144409 1899.955322,889.362000 
	C1900.026367,825.877747 1900.000000,762.393494 1900.000000,698.909180 
	C1900.000000,696.590393 1900.000000,694.271545 1900.000000,691.000000 
	C1933.598267,691.000000 1966.830444,691.000000 2000.531372,691.000000 
	C2001.000000,776.020874 2001.000000,861.041809 2000.658447,946.694946 
	C1999.880005,948.346802 1999.253784,949.327454 1999.034546,950.391907 
	C1995.087891,969.544067 1986.034790,985.514893 1970.232178,997.441467 
	C1957.834229,1006.798462 1943.625488,1011.701233 1928.706543,1015.085815 
	C1927.321899,1015.399841 1926.228516,1016.998047 1925.000000,1018.000000 
	C1853.312378,1018.000000 1781.624878,1018.000000 1709.302734,1017.656372 
	C1706.459473,1016.836853 1704.250610,1016.360901 1701.780518,1015.598022 
	C1694.411499,1013.416016 1687.046143,1012.166260 1680.262817,1009.458191 
	C1672.264160,1006.264893 1664.769531,1001.809448 1657.056274,997.901245 
	C1657.056274,997.901245 1657.037231,997.957581 1656.906738,997.656494 
	C1655.198120,996.198486 1653.619873,995.041626 1652.041748,993.884766 
	C1650.414673,992.449768 1648.787598,991.014771 1646.933350,988.969482 
	C1645.489868,986.874023 1644.273560,985.388916 1643.057251,983.903748 
	C1643.057251,983.903748 1643.039551,983.960388 1642.910645,983.644165 
	C1635.304443,973.339783 1631.414185,961.774536 1628.108521,949.952332 
z"/>
<path fill="#000000" opacity="1.000000" stroke="none" 
	d="
M1739.531372,0.999992 
	C1746.203857,2.335397 1752.381104,3.813337 1758.616333,4.981698 
	C1786.531738,10.212579 1812.714966,19.895187 1836.363159,35.761295 
	C1853.463623,47.234524 1869.645752,60.005516 1880.890625,77.576645 
	C1893.731323,97.641190 1901.873779,119.737045 1907.107056,142.995209 
	C1910.938232,160.022095 1913.202881,177.265411 1912.812622,194.595917 
	C1912.160889,223.530838 1906.687744,251.674026 1894.878784,278.302704 
	C1881.843994,307.696106 1866.799194,336.080566 1847.764648,361.999695 
	C1834.487915,380.078339 1819.996948,397.346344 1805.070190,414.105194 
	C1794.191284,426.319366 1782.226562,437.702423 1769.836182,448.402557 
	C1750.706299,464.922668 1730.042236,479.447388 1708.268799,492.392242 
	C1676.281128,511.409637 1642.393921,526.110779 1606.827271,536.779785 
	C1590.594604,541.649048 1573.993530,545.488586 1557.350098,548.714417 
	C1547.675659,550.589539 1537.595337,550.523743 1527.681519,550.975464 
	C1509.784790,551.790833 1491.845337,553.340637 1473.978516,552.793701 
	C1435.372559,551.611694 1397.743896,545.193542 1363.022583,526.968811 
	C1349.073486,519.647095 1335.679199,511.189758 1324.682495,499.922119 
	C1307.549927,482.367371 1296.151611,461.195190 1289.046143,437.728485 
	C1284.337524,422.178101 1281.872681,406.329376 1280.822266,390.058899 
	C1278.576660,355.282379 1285.177246,321.952148 1296.442261,289.473755 
	C1308.532715,254.615845 1325.993042,222.367966 1347.967896,192.736816 
	C1358.679321,178.293488 1370.105713,164.328461 1381.938965,150.785110 
	C1391.882202,139.404724 1402.588867,128.642685 1413.486572,118.156616 
	C1429.254150,102.984741 1447.212524,90.582390 1465.549438,78.732941 
	C1497.458984,58.112778 1531.189331,41.178802 1566.797241,27.872026 
	C1591.903076,18.490040 1617.612549,11.399446 1643.862305,6.227433 
	C1651.615356,4.699853 1659.545288,4.080214 1667.380981,2.952460 
	C1668.813110,2.746318 1670.181396,2.095248 1671.789551,1.324789 
	C1694.354248,1.000000 1716.708496,1.000000 1739.531372,0.999992 
M1418.671265,497.891235 
	C1452.502197,516.587830 1489.000977,524.202393 1527.365234,523.958313 
	C1530.820190,523.936340 1534.276611,523.381165 1537.723389,522.993042 
	C1550.347168,521.571533 1563.110840,520.874878 1575.558350,518.515198 
	C1601.704712,513.558594 1626.977417,505.582062 1651.618896,495.354095 
	C1676.753540,484.921478 1700.765015,472.475037 1723.619751,457.809692 
	C1742.827881,445.484314 1759.634399,430.319489 1774.528076,413.011932 
	C1784.026855,401.973511 1794.347046,391.580811 1803.177856,380.040619 
	C1827.322144,348.489227 1847.506470,314.683685 1858.061157,275.938171 
	C1863.949585,254.322433 1867.217529,232.470306 1865.223999,209.835922 
	C1863.587524,191.256546 1859.920044,173.314362 1853.438354,155.898010 
	C1845.669067,135.021225 1833.974731,116.523888 1818.760010,100.339279 
	C1800.818115,81.253609 1779.293701,67.338348 1755.266602,57.025890 
	C1730.238281,46.283680 1703.959473,40.858139 1677.005615,39.228867 
	C1661.796997,38.309555 1646.412842,39.102432 1631.178833,40.153198 
	C1618.043457,41.059212 1604.816895,42.533714 1591.964844,45.306087 
	C1552.381714,53.844742 1515.165649,68.610367 1481.462769,91.247978 
	C1467.104248,100.892311 1453.622192,111.866898 1439.967773,122.526566 
	C1425.869507,133.532776 1412.232910,144.997345 1400.545654,158.758408 
	C1383.873413,178.389084 1369.840088,199.702393 1357.917969,222.427719 
	C1347.609009,242.077988 1338.851440,262.498901 1333.684570,284.086945 
	C1329.821533,300.227936 1326.919678,316.727386 1325.286743,333.235077 
	C1323.856079,347.695923 1325.261597,362.290924 1327.822266,376.783630 
	C1332.992798,406.047821 1345.388184,431.831146 1364.765259,454.011230 
	C1379.976562,471.423004 1397.702881,486.164459 1418.671265,497.891235 
z"/>
<path fill="#000000" opacity="1.000000" stroke="none" 
	d="
M1.000000,691.468628 
	C34.421352,691.000000 67.842705,691.000000 102.000000,691.000000 
	C102.000000,800.081848 102.000000,908.572266 102.000000,1017.531372 
	C68.367775,1018.000000 34.735546,1018.000000 1.000000,1018.000000 
	C1.000000,909.312439 1.000000,800.624878 1.000000,691.468628 
z"/>
<path fill="#47704C" opacity="1.000000" stroke="none" 
	d="
M1925.468628,1018.000000 
	C1926.228516,1016.998047 1927.321899,1015.399841 1928.706543,1015.085815 
	C1943.625488,1011.701233 1957.834229,1006.798462 1970.232178,997.441467 
	C1986.034790,985.514893 1995.087891,969.544067 1999.034546,950.391907 
	C1999.253784,949.327454 1999.880005,948.346802 2000.658447,947.163574 
	C2001.000000,970.596008 2001.000000,994.192078 2001.000000,1018.000000 
	C1975.979492,1018.000000 1950.958374,1018.000000 1925.468628,1018.000000 
z"/>
<path fill="#47704C" opacity="1.000000" stroke="none" 
	d="
M1657.138916,998.244934 
	C1664.769531,1001.809448 1672.264160,1006.264893 1680.262817,1009.458191 
	C1687.046143,1012.166260 1694.411499,1013.416016 1701.773438,1015.950500 
	C1702.018433,1017.059998 1702.009155,1017.529968 1702.000000,1018.000000 
	C1641.979126,1018.000000 1581.958130,1018.000000 1521.333862,1017.834106 
	C1520.547974,1017.449402 1520.359985,1017.235352 1520.166504,1017.026123 
	C1520.128906,992.327759 1520.091187,967.629395 1520.110107,942.465271 
	C1524.274414,943.495239 1523.952881,947.074768 1523.962524,950.367798 
	C1524.015869,968.507324 1523.984009,986.646973 1524.006714,1004.786621 
	C1524.017700,1013.544556 1524.471191,1013.991882 1533.416504,1013.993958 
	C1578.349609,1014.004395 1623.282593,1014.007446 1668.215698,1013.974182 
	C1670.580933,1013.972412 1672.945923,1013.614197 1675.459961,1012.255737 
	C1671.129028,1009.604187 1666.667480,1007.138245 1662.522461,1004.222473 
	C1660.456543,1002.769348 1658.970215,1000.492737 1657.138916,998.244934 
z"/>
<path fill="#47704C" opacity="1.000000" stroke="none" 
	d="
M1702.437500,1018.000000 
	C1702.009155,1017.529968 1702.018433,1017.059998 1702.034790,1016.237427 
	C1704.250610,1016.360901 1706.459473,1016.836853 1708.834106,1017.656372 
	C1706.958374,1018.000000 1704.916626,1018.000000 1702.437500,1018.000000 
z"/>
<path fill="#47704C" opacity="1.000000" stroke="none" 
	d="
M1520.107666,1017.266602 
	C1520.359985,1017.235352 1520.547974,1017.449402 1520.865234,1017.834106 
	C1521.000000,1018.000000 1520.500000,1018.000000 1520.250000,1018.000000 
	C1520.000000,1018.000000 1520.048706,1017.507141 1520.107666,1017.266602 
z"/>
<path fill="#47704C" opacity="1.000000" stroke="none" 
	d="
M1519.932861,940.763611 
	C1436.399780,941.034058 1352.904175,941.017090 1269.408691,941.000061 
	C1268.075439,940.999756 1266.741821,941.020630 1265.409058,940.995056 
	C1262.150635,940.932495 1258.153442,941.665955 1257.193848,937.395020 
	C1256.250244,933.195435 1259.822266,931.233459 1262.888428,929.625793 
	C1274.913452,923.320557 1286.999023,917.129333 1299.103394,910.977051 
	C1323.618530,898.516846 1348.180786,886.149536 1372.686401,873.670837 
	C1405.600952,856.910339 1438.498413,840.115906 1471.362183,823.256042 
	C1479.714478,818.971130 1488.586426,815.289307 1496.034302,809.739563 
	C1510.023682,799.315491 1517.556152,784.727905 1520.100952,767.344971 
	C1522.033325,754.145874 1519.930786,741.699463 1514.952515,729.595093 
	C1513.393921,725.805298 1511.143066,722.300171 1509.047607,718.353760 
	C1510.674561,719.672729 1512.990967,720.989014 1514.173096,722.979065 
	C1536.468872,760.510803 1521.753906,804.632874 1486.898682,821.154297 
	C1465.681274,831.211548 1444.804932,841.994202 1423.849121,852.596619 
	C1379.244995,875.163696 1334.682739,897.813477 1290.119507,920.461304 
	C1282.842651,924.159424 1275.629639,927.984863 1268.432007,931.835266 
	C1266.921265,932.643433 1265.607666,933.820251 1264.203247,934.827209 
	C1264.295166,935.362122 1264.386963,935.897034 1264.478882,936.431885 
	C1267.126343,936.621033 1269.773682,936.974426 1272.421265,936.975403 
	C1351.414062,937.005188 1430.406860,936.998962 1509.399658,937.005249 
	C1511.565186,937.005432 1513.850830,936.668213 1515.857422,937.253479 
	C1517.409546,937.706238 1518.612305,939.357605 1519.932861,940.763611 
z"/>
<path fill="#47704C" opacity="1.000000" stroke="none" 
	d="
M1737.894409,925.742676 
	C1730.225342,919.101562 1728.215454,909.597534 1728.132202,900.020874 
	C1727.549194,832.982483 1727.333008,765.940918 1727.001465,698.900330 
	C1726.990112,696.583252 1727.000000,694.266052 1727.000000,691.016418 
	C1693.430786,691.016418 1660.229248,691.016418 1626.566162,691.033936 
	C1626.854858,689.821655 1627.375488,688.304504 1628.433105,687.458618 
	C1629.193970,686.849976 1630.671021,687.039062 1631.828613,687.038330 
	C1661.468628,687.019958 1691.108765,686.991882 1720.748657,687.050842 
	C1726.487671,687.062256 1729.313599,689.379395 1730.437256,695.080444 
	C1731.009888,697.986084 1730.977295,701.038818 1730.978760,704.025146 
	C1731.007080,761.640137 1731.025879,819.255188 1730.983521,876.870178 
	C1730.971313,893.374573 1730.779907,909.876099 1737.894409,925.742676 
z"/>
<path fill="#47704C" opacity="1.000000" stroke="none" 
	d="
M1628.011841,950.281372 
	C1631.414185,961.774536 1635.304443,973.339783 1642.939087,983.635925 
	C1641.840576,983.199158 1640.174805,982.749573 1639.392700,981.663635 
	C1632.714355,972.391541 1628.490356,962.162048 1628.011841,950.281372 
z"/>
<path fill="#47704C" opacity="1.000000" stroke="none" 
	d="
M1652.137939,994.225586 
	C1653.619873,995.041626 1655.198120,996.198486 1656.935181,997.647705 
	C1655.474121,996.815491 1653.854004,995.690979 1652.137939,994.225586 
z"/>
<path fill="#47704C" opacity="1.000000" stroke="none" 
	d="
M1643.119141,984.250183 
	C1644.273560,985.388916 1645.489868,986.874023 1646.769775,988.679565 
	C1645.615967,987.532227 1644.398560,986.064453 1643.119141,984.250183 
z"/>
<path fill="#47704C" opacity="1.000000" stroke="none" 
	d="
M1626.040283,936.186035 
	C1626.384277,936.746338 1626.659912,937.540344 1626.884521,938.666260 
	C1626.546265,938.138672 1626.259155,937.279175 1626.040283,936.186035 
z"/>
<path fill="#47704C" opacity="1.000000" stroke="none" 
	d="
M1627.040283,945.186035 
	C1627.384277,945.746338 1627.660034,946.540344 1627.884521,947.666260 
	C1627.546387,947.138672 1627.259277,946.279175 1627.040283,945.186035 
z"/>
<path fill="#47704C" opacity="1.000000" stroke="none" 
	d="
M1418.350098,497.704651 
	C1397.702881,486.164459 1379.976562,471.423004 1364.765259,454.011230 
	C1345.388184,431.831146 1332.992798,406.047821 1327.822266,376.783630 
	C1325.261597,362.290924 1323.856079,347.695923 1325.286743,333.235077 
	C1326.919678,316.727386 1329.821533,300.227936 1333.684570,284.086945 
	C1338.851440,262.498901 1347.609009,242.077988 1357.917969,222.427719 
	C1369.840088,199.702393 1383.873413,178.389084 1400.545654,158.758408 
	C1412.232910,144.997345 1425.869507,133.532776 1439.967773,122.526566 
	C1453.622192,111.866898 1467.104248,100.892311 1481.462769,91.247978 
	C1515.165649,68.610367 1552.381714,53.844742 1591.964844,45.306087 
	C1604.816895,42.533714 1618.043457,41.059212 1631.178833,40.153198 
	C1646.412842,39.102432 1661.796997,38.309555 1677.005615,39.228867 
	C1703.959473,40.858139 1730.238281,46.283680 1755.266602,57.025890 
	C1779.293701,67.338348 1800.818115,81.253609 1818.760010,100.339279 
	C1833.974731,116.523888 1845.669067,135.021225 1853.438354,155.898010 
	C1859.920044,173.314362 1863.587524,191.256546 1865.223999,209.835922 
	C1867.217529,232.470306 1863.949585,254.322433 1858.061157,275.938171 
	C1847.506470,314.683685 1827.322144,348.489227 1803.177856,380.040619 
	C1794.347046,391.580811 1784.026855,401.973511 1774.528076,413.011932 
	C1759.634399,430.319489 1742.827881,445.484314 1723.619751,457.809692 
	C1700.765015,472.475037 1676.753540,484.921478 1651.618896,495.354095 
	C1626.977417,505.582062 1601.704712,513.558594 1575.558350,518.515198 
	C1563.110840,520.874878 1550.347168,521.571533 1537.723389,522.993042 
	C1534.276611,523.381165 1530.820190,523.936340 1527.365234,523.958313 
	C1489.000977,524.202393 1452.502197,516.587830 1418.350098,497.704651 
M1613.000000,288.501831 
	C1613.000000,332.113800 1613.000000,375.725739 1613.000000,419.999603 
	C1615.605591,419.999603 1617.552734,419.999634 1619.500000,419.999634 
	C1654.666626,419.999603 1689.833252,420.002502 1724.999878,419.997101 
	C1731.977051,419.996033 1731.996216,419.981232 1731.996460,413.181488 
	C1732.000732,323.681580 1731.999390,234.181656 1731.999390,144.681747 
	C1731.999390,142.925079 1731.999390,141.168396 1731.999390,138.059860 
	C1729.633545,139.665863 1728.223389,140.352127 1727.154297,141.389877 
	C1713.332642,154.805939 1699.490356,168.201950 1685.793091,181.744492 
	C1670.978516,196.391754 1656.242310,211.119873 1641.611328,225.950287 
	C1635.249268,232.399078 1628.582642,238.706375 1623.209717,245.936615 
	C1614.114990,258.175323 1612.076538,272.578308 1613.000000,288.501831 
M1546.999268,216.499283 
	C1540.377075,210.210526 1533.676147,204.002396 1527.147827,197.617691 
	C1508.115845,179.003830 1489.157104,160.314880 1470.149170,141.676361 
	C1469.183105,140.729019 1468.024170,139.978531 1466.449585,138.738342 
	C1466.449585,232.949081 1466.449585,326.258392 1466.449585,419.571533 
	C1506.107544,419.571533 1545.316040,419.571533 1584.661133,419.571533 
	C1584.795776,418.016479 1584.980469,416.874695 1584.980835,415.732819 
	C1584.995972,370.754974 1585.199341,325.775574 1584.866821,280.800201 
	C1584.770630,267.781189 1581.864990,254.994293 1573.205566,244.720551 
	C1565.093262,235.095703 1556.103516,226.210541 1546.999268,216.499283 
z"/>
<path fill="#000000" opacity="1.000000" stroke="none" 
	d="
M1613.000000,288.002411 
	C1612.076538,272.578308 1614.114990,258.175323 1623.209717,245.936615 
	C1628.582642,238.706375 1635.249268,232.399078 1641.611328,225.950287 
	C1656.242310,211.119873 1670.978516,196.391754 1685.793091,181.744492 
	C1699.490356,168.201950 1713.332642,154.805939 1727.154297,141.389877 
	C1728.223389,140.352127 1729.633545,139.665863 1731.999390,138.059860 
	C1731.999390,141.168396 1731.999390,142.925079 1731.999390,144.681747 
	C1731.999390,234.181656 1732.000732,323.681580 1731.996460,413.181488 
	C1731.996216,419.981232 1731.977051,419.996033 1724.999878,419.997101 
	C1689.833252,420.002502 1654.666626,419.999603 1619.500000,419.999634 
	C1617.552734,419.999634 1615.605591,419.999603 1613.000000,419.999603 
	C1613.000000,375.725739 1613.000000,332.113800 1613.000000,288.002411 
z"/>
<path fill="#000000" opacity="1.000000" stroke="none" 
	d="
M1547.249512,216.749557 
	C1556.103516,226.210541 1565.093262,235.095703 1573.205566,244.720551 
	C1581.864990,254.994293 1584.770630,267.781189 1584.866821,280.800201 
	C1585.199341,325.775574 1584.995972,370.754974 1584.980835,415.732819 
	C1584.980469,416.874695 1584.795776,418.016479 1584.661133,419.571533 
	C1545.316040,419.571533 1506.107544,419.571533 1466.449585,419.571533 
	C1466.449585,326.258392 1466.449585,232.949081 1466.449585,138.738342 
	C1468.024170,139.978531 1469.183105,140.729019 1470.149170,141.676361 
	C1489.157104,160.314880 1508.115845,179.003830 1527.147827,197.617691 
	C1533.676147,204.002396 1540.377075,210.210526 1547.249512,216.749557 
z"/>
</svg>